<svg width="40" height="40" viewBox="0 0 40 40" fill="none" xmlns="http://www.w3.org/2000/svg">
<circle cx="20" cy="20" r="20" fill="#F3B016"/>
<path d="M26.5938 13.9062H17.1562C16.3806 13.9062 15.75 14.5372 15.75 15.3125C15.75 16.0881 16.3806 16.7188 17.1562 16.7188H26.5938C27.3691 16.7188 28 16.0881 28 15.3125C28 14.5372 27.3691 13.9062 26.5938 13.9062Z" fill="white"/>
<path d="M26.5938 18.5938H17.1562C16.3806 18.5938 15.75 19.2247 15.75 20C15.75 20.7756 16.3806 21.4062 17.1562 21.4062H26.5938C27.3691 21.4062 28 20.7756 28 20C28 19.2247 27.3691 18.5938 26.5938 18.5938Z" fill="white"/>
<path d="M26.5938 23.2812H17.1562C16.3806 23.2812 15.75 23.9122 15.75 24.6875C15.75 25.4631 16.3806 26.0938 17.1562 26.0938H26.5938C27.3691 26.0938 28 25.4631 28 24.6875C28 23.9122 27.3691 23.2812 26.5938 23.2812Z" fill="white"/>
<path d="M13.4062 13.9062C12.6306 13.9062 12 14.5372 12 15.3125C12 16.0881 12.6306 16.7188 13.4062 16.7188C14.1816 16.7188 14.8125 16.0881 14.8125 15.3125C14.8125 14.5372 14.1816 13.9062 13.4062 13.9062Z" fill="white"/>
<path d="M13.4062 18.5938C12.6306 18.5938 12 19.2247 12 20C12 20.7756 12.6306 21.4062 13.4062 21.4062C14.1816 21.4062 14.8125 20.7756 14.8125 20C14.8125 19.2247 14.1816 18.5938 13.4062 18.5938Z" fill="white"/>
<path d="M13.4062 23.2812C12.6306 23.2812 12 23.9122 12 24.6875C12 25.4631 12.6306 26.0938 13.4062 26.0938C14.1816 26.0938 14.8125 25.4631 14.8125 24.6875C14.8125 23.9122 14.1816 23.2812 13.4062 23.2812Z" fill="white"/>
</svg>
