<svg width="62" height="62" viewBox="0 0 62 62" fill="none" xmlns="http://www.w3.org/2000/svg">
<g clip-path="url(#clip0_518_701)">
<path d="M41.1664 0.503906H47.7084C47.9627 0.503967 48.1978 0.639797 48.3246 0.860352L51.2495 5.94824L51.394 6.19922H57.518C57.7713 6.19931 58.0051 6.33451 58.1323 6.55371L61.4037 12.1943C61.5307 12.4132 61.5322 12.6834 61.4067 12.9033L58.1352 18.6387C58.0086 18.8602 57.773 18.997 57.518 18.9971H51.3569L51.2094 19.2207L48.726 22.959L48.5297 23.2549L48.7446 23.5381C49.145 24.0647 49.3832 24.7195 49.3832 25.4297C49.3832 25.9062 49.2775 26.3648 49.0786 26.7803L48.9252 27.0996L49.1752 27.3496L51.5952 29.7686L51.8452 30.0195L52.1645 29.8662C52.5798 29.6672 53.0385 29.5615 53.5151 29.5615C55.2418 29.5616 56.6469 30.9676 56.6469 32.6943C56.6468 34.4209 55.2417 35.8261 53.5151 35.8262C51.7884 35.8262 50.3824 34.421 50.3823 32.6943C50.3823 32.2179 50.4881 31.7591 50.687 31.3438L50.8403 31.0244L47.9203 28.1045L47.601 28.2578C47.1857 28.4568 46.727 28.5615 46.2504 28.5615C44.5238 28.5615 43.1186 27.1563 43.1186 25.4297C43.1186 23.703 44.5237 22.2969 46.2504 22.2969C46.5085 22.2969 46.7595 22.3293 47.0004 22.3887L47.3422 22.4727L47.5366 22.1797L49.9741 18.5107L50.143 18.2559L49.9926 17.9893L47.4311 13.4404L47.2875 13.1855H41.1664C40.914 13.1855 40.6806 13.051 40.5532 12.833L37.4575 7.53809L37.3852 7.41406L37.2582 7.34766L34.4203 5.85645L34.1078 5.69238L33.8481 5.93262C33.2882 6.45157 32.541 6.76855 31.7211 6.76855C29.9946 6.76833 28.5893 5.36233 28.5893 3.63574C28.5895 1.90935 29.9947 0.504129 31.7211 0.503906C33.4477 0.503906 34.8537 1.90921 34.8539 3.63574C34.8539 3.78715 34.842 3.93723 34.8207 4.08496L34.7709 4.43457L35.0834 4.59863L37.1967 5.70898L37.6225 5.93262L37.8627 5.5166L40.5512 0.859375C40.6781 0.639503 40.9125 0.503959 41.1664 0.503906ZM53.5151 30.9834C52.5705 30.9834 51.8041 31.7498 51.8041 32.6943C51.8043 33.6379 52.5714 34.4043 53.5151 34.4043C54.4587 34.4043 55.2259 33.6379 55.226 32.6943C55.226 31.7507 54.4588 30.9834 53.5151 30.9834ZM46.2504 23.7188C45.3068 23.7188 44.5395 24.486 44.5395 25.4297C44.5395 26.3733 45.3068 27.1406 46.2504 27.1406C47.195 27.1406 47.9613 26.3742 47.9614 25.4297C47.9614 24.486 47.1941 23.7188 46.2504 23.7188ZM51.2377 7.86328L48.6713 12.2383L48.5258 12.4863L48.6664 12.7373L51.2485 17.3203L51.392 17.5752H57.1049L57.2485 17.3232L59.8266 12.8037L59.9692 12.5537L59.8246 12.3057L57.2524 7.86523L57.1088 7.61621H51.3832L51.2377 7.86328ZM41.433 2.17578L38.8637 6.62598L38.7182 6.87793L38.8647 7.12793L41.4301 11.5166L41.5746 11.7637H47.3012L47.4467 11.5166L50.0102 7.15137L50.1577 6.90039L50.0121 6.64844L47.4409 2.17578L47.2973 1.92578H41.5766L41.433 2.17578ZM31.7211 1.92578C30.7777 1.926 30.0114 2.69236 30.0112 3.63574C30.0112 4.57931 30.7776 5.34646 31.7211 5.34668C32.6648 5.34668 33.4321 4.57945 33.4321 3.63574C33.4318 2.69222 32.6647 1.92578 31.7211 1.92578Z" fill="#FEAD04" stroke="#FEAD04" stroke-width="0.999844"/>
<path d="M23.367 25.4453C23.6004 25.4453 23.8191 25.5599 23.952 25.752C24.3435 26.3188 24.9907 27.2973 25.5379 28.3193C25.8115 28.8304 26.0558 29.3439 26.2303 29.8164C26.4075 30.2963 26.4998 30.6989 26.4998 30.999C26.4998 32.7257 25.0937 34.1318 23.367 34.1318C21.6405 34.1316 20.2352 32.7256 20.2352 30.999C20.2352 30.6989 20.3275 30.2963 20.5047 29.8164C20.6792 29.3439 20.9234 28.8304 21.1971 28.3193C21.7443 27.2973 22.3915 26.3188 22.783 25.752L22.782 25.751C22.9148 25.5592 23.1339 25.4454 23.367 25.4453ZM22.9373 28.1445C22.5829 28.7416 22.2746 29.3144 22.0516 29.79C21.9403 30.0273 21.847 30.2469 21.7801 30.4375C21.7177 30.615 21.6617 30.8123 21.657 30.9873V31.001C21.6573 31.9433 22.424 32.7097 23.367 32.71C24.3101 32.71 25.077 31.9439 25.0779 31.001V30.9863C25.0731 30.8115 25.0164 30.6143 24.9539 30.4365C24.887 30.2459 24.7946 30.0262 24.6834 29.7891C24.4604 29.3135 24.1518 28.741 23.7977 28.1445L23.368 27.4209L22.9373 28.1445Z" fill="#FEAD04" stroke="#FEAD04" stroke-width="0.999844"/>
<path d="M23.3677 60.0742C23.7602 60.0743 24.0786 60.3926 24.0786 60.7852C24.0785 61.1776 23.7601 61.496 23.3677 61.4961C22.9752 61.4961 22.6568 61.1776 22.6567 60.7852C22.6567 60.3926 22.9751 60.0742 23.3677 60.0742Z" fill="#FEAD04" stroke="#FEAD04" stroke-width="0.999844"/>
<path d="M13.3184 10.918H33.417C33.8094 10.9182 34.1279 11.2365 34.1279 11.6289V16.4717C34.1279 16.8641 33.8094 17.1824 33.417 17.1826H31.7061V28.4043L31.7637 28.5127L45.7168 55.0957L45.7197 55.0996C46.0567 55.7269 46.2354 56.4378 46.2354 57.1533C46.2351 59.5474 44.2858 61.4961 41.8916 61.4961H28.8154C28.4231 61.4959 28.1055 61.1775 28.1055 60.7852C28.1055 60.3928 28.423 60.0744 28.8154 60.0742H41.8916C43.5028 60.0742 44.8132 58.7644 44.8135 57.1533C44.8135 56.7259 44.7232 56.314 44.5459 55.9307L44.4609 55.7607L40.7637 48.7178C39.8381 46.9546 38.9129 45.1914 38.2188 43.8691C37.8718 43.2082 37.5823 42.6571 37.3799 42.2715C37.2787 42.0786 37.1988 41.9265 37.1445 41.8232C37.1175 41.7717 37.097 41.7317 37.083 41.7051C37.0761 41.6918 37.0699 41.6815 37.0664 41.6748C37.0648 41.6718 37.0633 41.6696 37.0625 41.668L37.0615 41.666V41.665L36.9209 41.3975H9.81348L9.67285 41.666L9.67188 41.668C9.67102 41.6696 9.66955 41.6718 9.66797 41.6748C9.66445 41.6815 9.65922 41.692 9.65234 41.7051C9.63834 41.7318 9.61694 41.7716 9.58984 41.8232C9.53562 41.9265 9.4567 42.0786 9.35547 42.2715C9.15302 42.6572 8.86363 43.2081 8.5166 43.8691C7.82246 45.1915 6.8963 46.9545 5.9707 48.7178C4.11664 52.2497 2.27405 55.761 2.27441 55.7607L2.26953 55.7686C2.03859 56.1971 1.92188 56.6651 1.92188 57.1533C1.92213 58.7643 3.23172 60.0741 4.84277 60.0742H17.9189C18.3115 60.0742 18.6299 60.3926 18.6299 60.7852C18.6298 61.1776 18.3115 61.4961 17.9189 61.4961H4.84277C2.4487 61.496 0.500255 59.5474 0.5 57.1533C0.5 56.4378 0.678655 55.7269 1.01562 55.0996L1.01758 55.0957L14.9717 28.5127L15.0293 28.4043V17.1826H13.3184C12.9258 17.1826 12.6074 16.8642 12.6074 16.4717V11.6289C12.6074 11.2364 12.9258 10.918 13.3184 10.918ZM16.4502 28.5791C16.4502 28.6938 16.4226 28.807 16.3691 28.9092L10.9443 39.2432L10.5596 39.9756H36.1748L35.79 39.2432L30.3662 28.9092H30.3652C30.3119 28.8076 30.2842 28.6941 30.2842 28.5791V17.1826H16.4502V28.5791ZM14.0293 15.7607H32.7061V12.3398H14.0293V15.7607Z" fill="#FEAD04" stroke="#FEAD04" stroke-width="0.999844"/>
</g>
<defs>
<clipPath id="clip0_518_701">
<rect width="62" height="62" fill="white"/>
</clipPath>
</defs>
</svg>
