<svg width="350" height="50" viewBox="0 0 350 50" fill="none" xmlns="http://www.w3.org/2000/svg">
<rect x="0.5" y="0.5" width="349" height="49" stroke="#F1F1F1"/>
<rect x="285" width="65" height="50" fill="#FEAD04"/>
<g clip-path="url(#clip0_518_559)">
<path d="M331 12L305 26.625L313.309 29.7024L326.125 17.6875L316.377 30.8387L316.385 30.8417L316.375 30.8387V38.0001L321.035 32.5638L326.938 34.7501L331 12Z" fill="white"/>
</g>
<path d="M25.344 30V18.8H33.792V20.992H27.792V23.264H33.072V25.456H27.792V27.808H33.872V30H25.344ZM35.5188 26.208V23.872H40.4468V26.208H35.5188ZM42.338 30V21.424H44.77V22.64C45.4847 21.7227 46.3273 21.264 47.298 21.264C48.4393 21.264 49.2447 21.7173 49.714 22.624C50.4927 21.7173 51.4313 21.264 52.53 21.264C53.4473 21.264 54.1567 21.536 54.658 22.08C55.17 22.6133 55.426 23.392 55.426 24.416V30H52.994V25.216C52.994 24.0533 52.5193 23.472 51.57 23.472C51.1113 23.472 50.7487 23.6213 50.482 23.92C50.226 24.2187 50.098 24.6507 50.098 25.216V30H47.666V25.216C47.666 24.0533 47.1913 23.472 46.242 23.472C45.7833 23.472 45.4207 23.6213 45.154 23.92C44.898 24.2187 44.77 24.6507 44.77 25.216V30H42.338ZM59.9731 30.16C59.1305 30.16 58.4265 29.9253 57.8611 29.456C57.3065 28.9867 57.0291 28.336 57.0291 27.504C57.0291 26.5973 57.3385 25.9147 57.9571 25.456C58.5865 24.9973 59.4291 24.768 60.4851 24.768C61.1998 24.768 61.8985 24.8853 62.5811 25.12V24.976C62.5811 23.9307 61.9678 23.408 60.7411 23.408C60.0051 23.408 59.2158 23.5627 58.3731 23.872L57.7651 22.016C58.8105 21.5573 59.9198 21.328 61.0931 21.328C62.3838 21.328 63.3491 21.648 63.9891 22.288C64.6078 22.9067 64.9171 23.8187 64.9171 25.024V30H62.5651V29.072C61.9145 29.7973 61.0505 30.16 59.9731 30.16ZM60.7091 28.48C61.2745 28.48 61.7331 28.3413 62.0851 28.064C62.4371 27.776 62.6131 27.4133 62.6131 26.976V26.544C62.1545 26.3307 61.6371 26.224 61.0611 26.224C60.5278 26.224 60.1118 26.3307 59.8131 26.544C59.5251 26.7467 59.3811 27.0453 59.3811 27.44C59.3811 27.76 59.5038 28.016 59.7491 28.208C59.9945 28.3893 60.3145 28.48 60.7091 28.48ZM67.0579 20.48V18.32H69.6179V20.48H67.0579ZM67.1219 30V21.424H69.5539V30H67.1219ZM71.95 30V18.32H74.382V30H71.95Z" fill="#D1D1D1"/>
<defs>
<clipPath id="clip0_518_559">
<rect width="26" height="26" fill="white" transform="translate(305 12)"/>
</clipPath>
</defs>
</svg>
