<svg width="29" height="29" viewBox="0 0 29 29" fill="none" xmlns="http://www.w3.org/2000/svg">
<rect width="29" height="29" fill="#FEAD04"/>
<g clip-path="url(#clip0_518_210)">
<path d="M19.997 19.9982V19.9977H20V15.5967C20 13.4437 19.5365 11.7852 17.0195 11.7852C15.8095 11.7852 14.9975 12.4492 14.666 13.0787H14.631V11.9862H12.2445V19.9977H14.7295V16.0307C14.7295 14.9862 14.9275 13.9762 16.221 13.9762C17.4955 13.9762 17.5145 15.1682 17.5145 16.0977V19.9982H19.997Z" fill="white"/>
<path d="M8.198 11.9883H10.686V19.9998H8.198V11.9883Z" fill="white"/>
<path d="M9.441 8C8.6455 8 8 8.6455 8 9.441C8 10.2365 8.6455 10.8955 9.441 10.8955C10.2365 10.8955 10.882 10.2365 10.882 9.441C10.8815 8.6455 10.236 8 9.441 8V8Z" fill="white"/>
</g>
<defs>
<clipPath id="clip0_518_210">
<rect width="12" height="12" fill="white" transform="translate(8 8)"/>
</clipPath>
</defs>
</svg>
