<svg width="51" height="68" viewBox="0 0 51 68" fill="none" xmlns="http://www.w3.org/2000/svg">
<path d="M50.5859 17.5206C50.6465 16.9396 50.3204 16.3872 49.7824 16.1595C48.5496 15.6378 47.2442 15.3514 45.9335 15.2946C46.241 14.8875 46.5222 14.4579 46.7726 14.0069C48.4748 10.9405 48.623 7.20093 47.1686 4.00342C46.9268 3.47168 46.3655 3.16031 45.7868 3.23629C42.3039 3.69298 39.2084 5.79631 37.5061 8.86284C37.1761 9.45715 36.9054 10.077 36.6926 10.713C35.6763 9.38582 34.3637 8.28381 32.8363 7.52013C32.3142 7.25911 31.6823 7.3695 31.2795 7.79311C28.8594 10.3389 27.7761 13.9214 28.3818 17.3759C28.3826 17.3807 28.3837 17.3855 28.3846 17.3903C27.9949 17.2193 27.5937 17.07 27.1826 16.9445C26.6239 16.774 26.0192 16.9884 25.6929 17.4729C25.2329 18.1558 24.8566 18.8834 24.5636 19.6389C24.4792 19.6078 24.3914 19.5839 24.2999 19.5704C23.9509 19.5183 23.6012 19.484 23.2518 19.4656C25.0602 17.0942 25.8634 14.0497 25.4176 11.0641C25.3314 10.4862 24.8777 10.0327 24.2999 9.94639C22.1161 9.62014 19.9005 9.9622 17.9398 10.877C18.0251 10.3251 18.0695 9.7644 18.0695 9.19918C18.0695 5.69191 16.3839 2.35041 13.5605 0.260625C13.0909 -0.086875 12.4494 -0.086875 11.98 0.260625C9.15667 2.35027 7.47098 5.69191 7.47098 9.19918C7.47098 9.76427 7.51534 10.325 7.60062 10.877C5.63996 9.96233 3.42451 9.62027 1.24055 9.94639C0.662713 10.0326 0.209209 10.4862 0.122866 11.0641C-0.322933 14.0497 0.480063 17.0942 2.28863 19.4656C1.93927 19.484 1.58951 19.5183 1.24055 19.5704C0.662713 19.6566 0.209209 20.1102 0.122866 20.6881C-0.322933 23.6738 0.480196 26.7183 2.28863 29.0897C1.93914 29.1082 1.58938 29.1423 1.24042 29.1945C0.66258 29.2807 0.209076 29.7344 0.122733 30.3121C-0.323066 33.2978 0.47993 36.3423 2.2885 38.7137C1.93914 38.732 1.58938 38.7663 1.24042 38.8185C0.66258 38.9047 0.209076 39.3583 0.122733 39.9361C-0.0476962 41.0766 -0.0405234 42.232 0.143588 43.3701C0.26075 44.0944 0.943396 44.5863 1.66709 44.4692C2.39131 44.3521 2.88347 43.67 2.76618 42.9457C2.68076 42.4182 2.64543 41.8858 2.65991 41.3541C4.98175 41.2858 7.20039 42.1592 8.87054 43.8292C10.5408 45.4994 11.415 47.7191 11.3457 50.0399C10.8004 50.0553 10.2536 50.0171 9.71272 49.9268C8.9885 49.8061 8.30452 50.2949 8.18377 51.0185C8.06303 51.7422 8.55186 52.4267 9.27542 52.5474C9.88448 52.649 10.4986 52.6998 11.113 52.6998C11.2225 52.6998 11.332 52.697 11.4416 52.6937V66.6718C11.4416 67.4054 12.0363 68.0001 12.77 68.0001C13.5036 68.0001 14.0983 67.4054 14.0983 66.6718V52.6921C14.201 52.6949 14.3037 52.6976 14.4064 52.6976C17.1362 52.6976 19.8039 51.6882 21.8481 49.8568C23.4155 50.6579 25.1741 51.0805 26.9409 51.0805C26.9622 51.0805 26.9834 51.0792 27.0046 51.079C26.2896 56.2288 25.9267 61.4439 25.9267 66.6715C25.9267 67.4052 26.5216 67.9999 27.2551 67.9999C27.9886 67.9999 28.5835 67.4052 28.5835 66.6715C28.5835 61.4896 28.9363 56.3731 29.6371 51.335C31.4757 52.5831 33.6648 53.2679 35.9047 53.2679C36.2234 53.2679 36.5434 53.2541 36.8633 53.2261C40.357 52.9196 43.5384 50.9486 45.3736 47.9535C45.6788 47.4554 45.6228 46.8163 45.2356 46.3789C44.069 45.0613 42.6143 44.0557 41.0138 43.4186C43.37 41.9128 45.1114 39.5438 45.8155 36.7945C45.9604 36.2286 45.7187 35.6344 45.2199 35.3305C44.6571 34.9875 44.0683 34.6983 43.4621 34.4636C45.8315 32.7998 47.4952 30.2429 48.0247 27.3566C48.1301 26.7821 47.8478 26.2061 47.3292 25.9374C46.9131 25.7218 46.4857 25.5351 46.0502 25.3756C48.5857 23.5345 50.2577 20.6671 50.5859 17.5206ZM11.3457 40.4173C9.02436 40.4877 6.80387 39.6127 5.13345 37.9422C3.4629 36.2716 2.58857 34.0513 2.65831 31.73C4.98003 31.6593 7.20012 32.5347 8.87054 34.205C10.5411 35.8755 11.4154 38.0959 11.3457 40.4173ZM11.3457 30.7932C9.02436 30.8637 6.80387 29.9886 5.13345 28.3181C3.4629 26.6475 2.58857 24.4273 2.65845 22.1058C4.98016 22.0354 7.20025 22.9106 8.87067 24.581C10.5411 26.2517 11.4154 28.4719 11.3457 30.7932ZM11.3457 21.1693C9.02436 21.24 6.80387 20.3647 5.13345 18.6942C3.4629 17.0236 2.58857 14.8034 2.65831 12.482C4.98003 12.4117 7.20012 13.2866 8.87054 14.9571C10.5411 16.6277 11.4154 18.8479 11.3457 21.1693ZM12.7701 15.3421C11.0793 13.75 10.1276 11.5618 10.1276 9.19918C10.1276 6.83656 11.0793 4.64848 12.7701 3.0563C14.461 4.64834 15.4127 6.83656 15.4127 9.19918C15.4127 11.5618 14.4608 13.7499 12.7701 15.3421ZM20.4066 47.5662C18.736 49.2367 16.5166 50.1109 14.1944 50.0413C14.1246 47.72 14.9989 45.4998 16.6695 43.8291C18.34 42.1585 20.5596 41.2835 22.8817 41.354C22.9516 43.6754 22.0773 45.8956 20.4066 47.5662ZM20.4066 37.9422C18.736 39.6129 16.5166 40.488 14.1944 40.4173C14.1246 38.0959 14.9989 35.8756 16.6694 34.2051C18.34 32.5345 20.5615 31.6598 22.8817 31.7301C22.9516 34.0513 22.0773 36.2716 20.4066 37.9422ZM20.4066 28.3182C18.736 29.9887 16.5166 30.8633 14.1944 30.7933C14.1246 28.472 14.9989 26.2518 16.6695 24.5811C18.34 22.9106 20.5596 22.036 22.8817 22.106C22.9516 24.4274 22.0773 26.6476 20.4066 28.3182ZM20.4066 18.6942C18.736 20.3649 16.5166 21.2404 14.1944 21.1693C14.1246 18.8479 14.9989 16.6277 16.6695 14.9571C18.34 13.2866 20.5596 12.4113 22.8817 12.482C22.9516 14.8034 22.0773 17.0236 20.4066 18.6942ZM39.8289 10.1523C40.9755 8.08668 42.8697 6.63544 45.1208 6.06411C45.8264 8.27677 45.5963 10.6519 44.4497 12.7175C43.3029 14.7831 41.4087 16.2343 39.1576 16.8057C38.4523 14.5929 38.6823 12.2179 39.8289 10.1523ZM32.5407 10.4103C34.481 11.6865 35.7963 13.6775 36.2043 16.0045C36.6122 18.3317 36.0526 20.6513 34.6622 22.5115C32.7218 21.2352 31.4065 19.2443 30.9986 16.9172C30.5906 14.5901 31.1501 12.2705 32.5407 10.4103ZM26.6636 48.4197C25.6309 48.3863 24.6078 48.1638 23.6576 47.7689C24.5701 46.4013 25.1692 44.8456 25.4133 43.2248C26.3869 44.7752 26.8252 46.5825 26.6636 48.4197ZM28.7426 40.6896C26.8776 40.0173 25.3202 38.7206 24.3206 37.0045C25.357 34.9637 25.7621 32.6209 25.4173 30.3119C25.41 30.2626 25.399 30.2148 25.3865 30.1675C26.8446 31.0574 28.0044 32.3785 28.712 34.0033C29.6553 36.1689 29.6566 38.555 28.7426 40.6896ZM26.944 26.4489C26.1622 24.2453 26.3247 21.8896 27.3725 19.8443C29.4751 20.7722 31.0856 22.4989 31.8673 24.7025C32.649 26.9061 32.4866 29.2619 31.4388 31.3071C29.3362 30.3791 27.7257 28.6524 26.944 26.4489ZM42.5197 47.4106C41.0814 49.2341 38.9848 50.3733 36.6312 50.5797C34.2799 50.7869 32.0149 50.0292 30.281 48.4839C31.7193 46.6605 33.816 45.5213 36.1696 45.3149C38.5227 45.1082 40.7859 45.8653 42.5197 47.4106ZM38.2346 41.8793C36.0462 42.7697 33.6606 42.7129 31.5488 41.7469C32.3862 39.5807 34.0542 37.8744 36.2425 36.984H36.2427C38.4308 36.0935 40.8164 36.1504 42.9283 37.1165C42.0911 39.2825 40.4229 40.9888 38.2346 41.8793ZM40.8138 32.9539C38.6922 33.9936 36.3086 34.102 34.1348 33.2845C34.8204 31.0656 36.3665 29.2479 38.488 28.2082C40.6093 27.1684 42.993 27.06 45.1668 27.8776C44.4813 30.0965 42.9354 31.9141 40.8138 32.9539ZM43.8302 23.6596C41.7956 24.8607 39.4273 25.1535 37.1967 24.5066C37.7083 22.2412 39.1089 20.3092 41.1433 19.1082C43.1779 17.9074 45.5463 17.6145 47.7766 18.2613C47.2652 20.5265 45.8647 22.4585 43.8302 23.6596Z" fill="#FEAD04"/>
<path d="M4.19427 49.8013C3.84491 49.8013 3.50219 49.6605 3.25512 49.4134C3.00804 49.165 2.86591 48.8236 2.86591 48.4729C2.86591 48.1235 3.00804 47.7808 3.25512 47.5337C3.50219 47.2867 3.84491 47.1445 4.19427 47.1445C4.54363 47.1445 4.88635 47.2867 5.13342 47.5337C5.3805 47.7808 5.52263 48.1235 5.52263 48.4729C5.52263 48.8236 5.3805 49.165 5.13342 49.4134C4.88635 49.6605 4.54363 49.8013 4.19427 49.8013Z" fill="#FEAD04"/>
</svg>
