<svg width="205" height="269" viewBox="0 0 205 269" fill="none" xmlns="http://www.w3.org/2000/svg">
<circle cx="102.5" cy="102.5" r="102.5" fill="#5D3128"/>
<mask id="mask0_518_269" style="mask-type:alpha" maskUnits="userSpaceOnUse" x="0" y="0" width="205" height="205">
<circle cx="102.5" cy="102.5" r="102.5" fill="#C4C4C4"/>
</mask>
<g mask="url(#mask0_518_269)">
<path d="M98.8724 84.2872V-6H161.681C174.33 -6 219.692 35.4362 225.798 54.6277C231.904 73.8191 299.511 128.34 312.596 151.021C325.681 173.702 79.2447 240 58.7447 241.309C42.3447 242.355 -28.9326 193.539 -41 158.5L98.8724 84.2872Z" fill="#FEAD04"/>
</g>
<circle cx="102.5" cy="102.5" r="79.5" fill="white"/>
<path d="M47.9875 117.7C55.7875 117.7 61.4875 113.15 61.4875 106.05C61.4875 100 57.4375 97.2 52.4375 96.1L60.7875 88.95V82H35.4875V89.85H48.8875L40.8375 97.1L42.2375 102.15H46.3375C49.9875 102.15 52.0375 103.5 52.0375 105.75C52.0375 108 50.2875 109.4 47.5375 109.4C44.3375 109.4 41.6875 107.95 39.1875 105.4L33.0875 111.5C36.4875 115.25 41.2375 117.7 47.9875 117.7ZM81.4422 117.7C91.4422 117.7 97.6922 109.4 97.6922 99.5C97.6922 89.5 91.4922 81.3 81.5422 81.3C71.5922 81.3 65.2922 89.6 65.2922 99.5C65.2922 109.5 71.4422 117.7 81.4422 117.7ZM81.5422 109.1C77.6422 109.1 75.0422 105.1 75.0422 99.5C75.0422 93.8 77.5922 89.9 81.4422 89.9C85.2922 89.9 87.9422 93.95 87.9422 99.5C87.9422 105.15 85.4422 109.1 81.5422 109.1ZM117.966 117.7C127.966 117.7 134.216 109.4 134.216 99.5C134.216 89.5 128.016 81.3 118.066 81.3C108.116 81.3 101.816 89.6 101.816 99.5C101.816 109.5 107.966 117.7 117.966 117.7ZM118.066 109.1C114.166 109.1 111.566 105.1 111.566 99.5C111.566 93.8 114.116 89.9 117.966 89.9C121.816 89.9 124.466 93.95 124.466 99.5C124.466 105.15 121.966 109.1 118.066 109.1ZM154.489 117.7C164.489 117.7 170.739 109.4 170.739 99.5C170.739 89.5 164.539 81.3 154.589 81.3C144.639 81.3 138.339 89.6 138.339 99.5C138.339 109.5 144.489 117.7 154.489 117.7ZM154.589 109.1C150.689 109.1 148.089 105.1 148.089 99.5C148.089 93.8 150.639 89.9 154.489 89.9C158.339 89.9 160.989 93.95 160.989 99.5C160.989 105.15 158.489 109.1 154.589 109.1Z" fill="#FEAD04"/>
<path d="M51.2134 241V229.8H55.6294C56.9308 229.8 57.9654 230.141 58.7334 230.824C59.5014 231.507 59.8854 232.424 59.8854 233.576C59.8854 234.781 59.4588 235.72 58.6054 236.392C57.7628 237.064 56.6961 237.4 55.4054 237.4H53.1814V241H51.2134ZM53.1814 235.624H55.4694C56.2054 235.624 56.7921 235.437 57.2294 235.064C57.6668 234.691 57.8854 234.2 57.8854 233.592C57.8854 232.952 57.6668 232.461 57.2294 232.12C56.8028 231.768 56.2161 231.592 55.4694 231.592H53.1814V235.624ZM68.7649 241H66.8449V239.96C66.1623 240.771 65.2503 241.176 64.1089 241.176C63.2663 241.176 62.5516 240.947 61.9649 240.488C61.3889 240.019 61.1009 239.368 61.1009 238.536C61.1009 237.629 61.4156 236.941 62.0449 236.472C62.6743 236.003 63.5009 235.768 64.5249 235.768C65.3463 235.768 66.1249 235.885 66.8609 236.12V235.96C66.8609 235.373 66.6796 234.925 66.3169 234.616C65.9649 234.307 65.4529 234.152 64.7809 234.152C64.0129 234.152 63.2076 234.328 62.3649 234.68L61.8369 233.128C62.8823 232.659 63.9543 232.424 65.0529 232.424C66.2796 232.424 67.2023 232.733 67.8209 233.352C68.4503 233.971 68.7649 234.851 68.7649 235.992V241ZM66.8929 237.944V237.464C66.3169 237.24 65.6716 237.128 64.9569 237.128C64.3489 237.128 63.8743 237.245 63.5329 237.48C63.1916 237.715 63.0209 238.045 63.0209 238.472C63.0209 238.856 63.1756 239.16 63.4849 239.384C63.7943 239.608 64.1836 239.72 64.6529 239.72C65.3036 239.72 65.8369 239.555 66.2529 239.224C66.6796 238.893 66.8929 238.467 66.8929 237.944ZM75.1956 239.512C75.9102 239.512 76.4916 239.267 76.9396 238.776C77.3982 238.275 77.6276 237.656 77.6276 236.92C77.6276 236.195 77.3876 235.581 76.9076 235.08C76.4382 234.568 75.8569 234.312 75.1636 234.312C74.4596 234.312 73.8782 234.563 73.4196 235.064C72.9716 235.565 72.7476 236.184 72.7476 236.92C72.7476 237.645 72.9822 238.259 73.4516 238.76C73.9209 239.261 74.5022 239.512 75.1956 239.512ZM75.1636 241.192C73.7982 241.192 72.7316 240.76 71.9636 239.896C71.1956 239.032 70.8116 237.821 70.8116 236.264C70.8116 235.763 70.8222 235.325 70.8436 234.952C70.8756 234.568 70.9289 234.157 71.0036 233.72C71.0782 233.272 71.1902 232.883 71.3396 232.552C71.4996 232.221 71.6969 231.907 71.9316 231.608C72.1769 231.299 72.4862 231.043 72.8596 230.84C73.2436 230.627 73.6862 230.467 74.1876 230.36L78.7956 229.4L79.1156 230.952L74.5076 231.96C73.7396 232.12 73.1902 232.408 72.8596 232.824C72.5289 233.229 72.3369 233.741 72.2836 234.36C72.5396 233.933 72.9396 233.565 73.4836 233.256C74.0382 232.936 74.7209 232.776 75.5316 232.776C76.6302 232.776 77.5742 233.176 78.3636 233.976C79.1636 234.765 79.5636 235.736 79.5636 236.888C79.5636 238.072 79.1422 239.085 78.2996 239.928C77.4676 240.771 76.4222 241.192 75.1636 241.192ZM85.5523 241.192C84.2723 241.192 83.2056 240.765 82.3523 239.912C81.499 239.059 81.0723 238.019 81.0723 236.792C81.0723 235.565 81.5043 234.525 82.3683 233.672C83.2323 232.808 84.3043 232.376 85.5843 232.376C86.8643 232.376 87.931 232.803 88.7843 233.656C89.6483 234.509 90.0803 235.555 90.0803 236.792C90.0803 238.008 89.6483 239.048 88.7843 239.912C87.9203 240.765 86.843 241.192 85.5523 241.192ZM85.5843 239.512C86.3523 239.512 86.971 239.251 87.4403 238.728C87.9096 238.205 88.1443 237.56 88.1443 236.792C88.1443 236.035 87.899 235.395 87.4083 234.872C86.9176 234.339 86.299 234.072 85.5523 234.072C84.795 234.072 84.1816 234.333 83.7123 234.856C83.243 235.379 83.0083 236.024 83.0083 236.792C83.0083 237.539 83.2536 238.179 83.7443 238.712C84.235 239.245 84.8483 239.512 85.5843 239.512ZM93.8599 241V234.216H91.1399V232.552H98.5319V234.216H95.8119V241H93.8599ZM107.156 241H105.236V239.96C104.553 240.771 103.641 241.176 102.5 241.176C101.657 241.176 100.942 240.947 100.356 240.488C99.7796 240.019 99.4916 239.368 99.4916 238.536C99.4916 237.629 99.8062 236.941 100.436 236.472C101.065 236.003 101.892 235.768 102.916 235.768C103.737 235.768 104.516 235.885 105.252 236.12V235.96C105.252 235.373 105.07 234.925 104.708 234.616C104.356 234.307 103.844 234.152 103.172 234.152C102.404 234.152 101.598 234.328 100.756 234.68L100.228 233.128C101.273 232.659 102.345 232.424 103.444 232.424C104.67 232.424 105.593 232.733 106.212 233.352C106.841 233.971 107.156 234.851 107.156 235.992V241ZM105.284 237.944V237.464C104.708 237.24 104.062 237.128 103.348 237.128C102.74 237.128 102.265 237.245 101.924 237.48C101.582 237.715 101.412 238.045 101.412 238.472C101.412 238.856 101.566 239.16 101.876 239.384C102.185 239.608 102.574 239.72 103.044 239.72C103.694 239.72 104.228 239.555 104.644 239.224C105.07 238.893 105.284 238.467 105.284 237.944ZM116.962 241.192C115.853 241.192 114.925 240.856 114.178 240.184C113.442 239.501 112.994 238.632 112.834 237.576H111.378V241H109.458V232.552H111.378V235.976H112.834C113.005 234.941 113.464 234.088 114.21 233.416C114.968 232.733 115.896 232.392 116.994 232.392C118.242 232.392 119.256 232.813 120.034 233.656C120.813 234.499 121.202 235.544 121.202 236.792C121.202 238.019 120.808 239.059 120.018 239.912C119.229 240.765 118.21 241.192 116.962 241.192ZM116.994 239.512C117.72 239.512 118.28 239.256 118.674 238.744C119.08 238.221 119.282 237.571 119.282 236.792C119.282 236.024 119.069 235.379 118.642 234.856C118.226 234.333 117.666 234.072 116.962 234.072C116.237 234.072 115.677 234.328 115.282 234.84C114.888 235.352 114.69 236.003 114.69 236.792C114.69 237.56 114.898 238.205 115.314 238.728C115.73 239.251 116.29 239.512 116.994 239.512ZM134.553 243.032V241H123.177V232.552H125.113V239.336H128.233V232.552H130.153V239.336H133.273V232.552H135.209V239.336H136.409L136.169 243.032H134.553ZM138.021 241V232.552H139.909V238.216C141.679 235.699 143.013 233.811 143.909 232.552H145.733V241H143.861V235.368L139.845 241H138.021ZM147.425 241L150.529 236.712L147.537 232.552H149.649L151.601 235.336L153.553 232.552H155.617L152.625 236.664L155.745 241H153.633L151.553 238.04L149.489 241H147.425ZM20.4973 263V254.552H28.0333V263H26.0973V256.216H22.4333V263H20.4973ZM30.466 265.56V254.552H32.402V255.96C33.1487 254.904 34.1033 254.376 35.266 254.376C36.3327 254.376 37.2553 254.776 38.034 255.576C38.8127 256.365 39.202 257.437 39.202 258.792C39.202 260.125 38.8127 261.192 38.034 261.992C37.2553 262.781 36.3327 263.176 35.266 263.176C34.1033 263.176 33.1487 262.68 32.402 261.688V265.56H30.466ZM34.818 261.496C35.5007 261.496 36.0713 261.245 36.53 260.744C36.9993 260.243 37.234 259.581 37.234 258.76C37.234 257.96 36.9993 257.309 36.53 256.808C36.0607 256.307 35.49 256.056 34.818 256.056C34.146 256.056 33.5647 256.312 33.074 256.824C32.594 257.336 32.354 257.992 32.354 258.792C32.354 259.581 32.594 260.232 33.074 260.744C33.5647 261.245 34.146 261.496 34.818 261.496ZM45.2008 263.192C43.9208 263.192 42.8541 262.765 42.0008 261.912C41.1474 261.059 40.7208 260.019 40.7208 258.792C40.7208 257.565 41.1528 256.525 42.0168 255.672C42.8808 254.808 43.9528 254.376 45.2328 254.376C46.5128 254.376 47.5794 254.803 48.4328 255.656C49.2968 256.509 49.7288 257.555 49.7288 258.792C49.7288 260.008 49.2968 261.048 48.4328 261.912C47.5688 262.765 46.4914 263.192 45.2008 263.192ZM45.2328 261.512C46.0008 261.512 46.6194 261.251 47.0888 260.728C47.5581 260.205 47.7928 259.56 47.7928 258.792C47.7928 258.035 47.5474 257.395 47.0568 256.872C46.5661 256.339 45.9474 256.072 45.2008 256.072C44.4434 256.072 43.8301 256.333 43.3608 256.856C42.8914 257.379 42.6568 258.024 42.6568 258.792C42.6568 259.539 42.9021 260.179 43.3928 260.712C43.8834 261.245 44.4968 261.512 45.2328 261.512ZM51.7004 263V254.552H53.5884V260.216C55.359 257.699 56.6924 255.811 57.5884 254.552H59.4124V263H57.5404V257.368L53.5244 263H51.7004ZM64.721 263.192C63.2703 263.192 62.0383 262.76 61.025 261.896L61.937 260.616C62.7263 261.288 63.6117 261.624 64.593 261.624C65.041 261.624 65.4197 261.517 65.729 261.304C66.0383 261.08 66.193 260.797 66.193 260.456C66.193 260.136 66.0437 259.88 65.745 259.688C65.4463 259.496 65.025 259.4 64.481 259.4H63.441V258.008H64.481C64.929 258.008 65.2863 257.907 65.553 257.704C65.8303 257.491 65.969 257.224 65.969 256.904C65.969 256.616 65.8357 256.387 65.569 256.216C65.313 256.035 64.9823 255.944 64.577 255.944C63.6383 255.944 62.8383 256.232 62.177 256.808L61.313 255.592C62.241 254.781 63.3877 254.376 64.753 254.376C65.681 254.376 66.4383 254.589 67.025 255.016C67.6117 255.443 67.905 255.987 67.905 256.648C67.905 257.544 67.4623 258.184 66.577 258.568C67.601 258.931 68.113 259.613 68.113 260.616C68.113 261.341 67.7983 261.955 67.169 262.456C66.5397 262.947 65.7237 263.192 64.721 263.192ZM70.1223 263V254.552H74.4583C75.3009 254.552 75.9729 254.744 76.4743 255.128C76.9863 255.501 77.2423 256.013 77.2423 256.664C77.2423 257.549 76.7889 258.195 75.8823 258.6C77.0449 258.931 77.6263 259.635 77.6263 260.712C77.6263 261.427 77.3436 261.987 76.7783 262.392C76.2236 262.797 75.4663 263 74.5063 263H70.1223ZM72.0263 261.464H74.2183C74.6769 261.464 75.0289 261.368 75.2743 261.176C75.5303 260.973 75.6583 260.707 75.6583 260.376C75.6583 260.056 75.5249 259.805 75.2583 259.624C75.0023 259.443 74.6236 259.352 74.1223 259.352H72.0263V261.464ZM72.0263 258.04H74.0103C74.4049 258.04 74.7143 257.944 74.9383 257.752C75.1623 257.56 75.2743 257.309 75.2743 257C75.2743 256.712 75.1729 256.483 74.9703 256.312C74.7676 256.131 74.4583 256.04 74.0423 256.04H72.0263V258.04ZM83.5758 263.192C82.2958 263.192 81.2291 262.765 80.3758 261.912C79.5224 261.059 79.0958 260.019 79.0958 258.792C79.0958 257.565 79.5278 256.525 80.3918 255.672C81.2558 254.808 82.3278 254.376 83.6078 254.376C84.8878 254.376 85.9544 254.803 86.8078 255.656C87.6718 256.509 88.1038 257.555 88.1038 258.792C88.1038 260.008 87.6718 261.048 86.8078 261.912C85.9438 262.765 84.8664 263.192 83.5758 263.192ZM83.6078 261.512C84.3758 261.512 84.9944 261.251 85.4638 260.728C85.9331 260.205 86.1678 259.56 86.1678 258.792C86.1678 258.035 85.9224 257.395 85.4318 256.872C84.9411 256.339 84.3224 256.072 83.5758 256.072C82.8184 256.072 82.2051 256.333 81.7358 256.856C81.2664 257.379 81.0318 258.024 81.0318 258.792C81.0318 259.539 81.2771 260.179 81.7678 260.712C82.2584 261.245 82.8718 261.512 83.6078 261.512ZM89.0994 265.032V261.336H90.0114C90.6407 260.077 90.9554 258.163 90.9554 255.592V254.552H97.4994V261.336H98.6994L98.4434 265.032H96.8274V263H90.9074L90.7154 265.032H89.0994ZM91.9954 261.336H95.5634V256.216H92.7794V257.336C92.7794 258.904 92.518 260.237 91.9954 261.336ZM104.214 263.192C102.966 263.192 101.926 262.771 101.094 261.928C100.262 261.075 99.8458 260.04 99.8458 258.824V258.792C99.8458 257.576 100.262 256.536 101.094 255.672C101.936 254.808 102.982 254.376 104.23 254.376C105.595 254.376 106.72 254.861 107.606 255.832L106.406 257.128C105.734 256.424 105.003 256.072 104.214 256.072C103.52 256.072 102.939 256.333 102.47 256.856C102.011 257.379 101.782 258.013 101.782 258.76V258.792C101.782 259.56 102.016 260.205 102.486 260.728C102.966 261.251 103.574 261.512 104.31 261.512C105.088 261.512 105.819 261.16 106.502 260.456L107.67 261.608C107.211 262.12 106.71 262.515 106.166 262.792C105.632 263.059 104.982 263.192 104.214 263.192ZM111.18 263V256.216H108.46V254.552H115.852V256.216H113.132V263H111.18ZM117.388 263V254.552H121.724C122.567 254.552 123.239 254.744 123.74 255.128C124.252 255.501 124.508 256.013 124.508 256.664C124.508 257.549 124.055 258.195 123.148 258.6C124.311 258.931 124.892 259.635 124.892 260.712C124.892 261.427 124.609 261.987 124.044 262.392C123.489 262.797 122.732 263 121.772 263H117.388ZM119.292 261.464H121.484C121.943 261.464 122.295 261.368 122.54 261.176C122.796 260.973 122.924 260.707 122.924 260.376C122.924 260.056 122.791 259.805 122.524 259.624C122.268 259.443 121.889 259.352 121.388 259.352H119.292V261.464ZM119.292 258.04H121.276C121.671 258.04 121.98 257.944 122.204 257.752C122.428 257.56 122.54 257.309 122.54 257C122.54 256.712 122.439 256.483 122.236 256.312C122.033 256.131 121.724 256.04 121.308 256.04H119.292V258.04ZM131.622 263V254.552H135.958C136.801 254.552 137.473 254.744 137.974 255.128C138.486 255.501 138.742 256.013 138.742 256.664C138.742 257.549 138.289 258.195 137.382 258.6C138.545 258.931 139.126 259.635 139.126 260.712C139.126 261.427 138.844 261.987 138.278 262.392C137.724 262.797 136.966 263 136.006 263H131.622ZM133.526 261.464H135.718C136.177 261.464 136.529 261.368 136.774 261.176C137.03 260.973 137.158 260.707 137.158 260.376C137.158 260.056 137.025 259.805 136.758 259.624C136.502 259.443 136.124 259.352 135.622 259.352H133.526V261.464ZM133.526 258.04H135.51C135.905 258.04 136.214 257.944 136.438 257.752C136.662 257.56 136.774 257.309 136.774 257C136.774 256.712 136.673 256.483 136.47 256.312C136.268 256.131 135.958 256.04 135.542 256.04H133.526V258.04ZM145.857 263V254.552H147.777L150.417 258.472L153.073 254.552H154.993V263H153.041V257.368L150.385 261.16L147.745 257.4V263H145.857ZM157.419 263V254.552H159.307V260.216C161.078 257.699 162.411 255.811 163.307 254.552H165.131V263H163.259V257.368L159.243 263H157.419ZM167.56 265.56V254.552H169.496V255.96C170.242 254.904 171.197 254.376 172.36 254.376C173.426 254.376 174.349 254.776 175.128 255.576C175.906 256.365 176.296 257.437 176.296 258.792C176.296 260.125 175.906 261.192 175.128 261.992C174.349 262.781 173.426 263.176 172.36 263.176C171.197 263.176 170.242 262.68 169.496 261.688V265.56H167.56ZM171.912 261.496C172.594 261.496 173.165 261.245 173.624 260.744C174.093 260.243 174.328 259.581 174.328 258.76C174.328 257.96 174.093 257.309 173.624 256.808C173.154 256.307 172.584 256.056 171.912 256.056C171.24 256.056 170.658 256.312 170.168 256.824C169.688 257.336 169.448 257.992 169.448 258.792C169.448 259.581 169.688 260.232 170.168 260.744C170.658 261.245 171.24 261.496 171.912 261.496ZM182.151 263.192C180.913 263.192 179.879 262.781 179.047 261.96C178.225 261.139 177.815 260.077 177.815 258.776C177.815 257.549 178.204 256.509 178.983 255.656C179.761 254.803 180.748 254.376 181.943 254.376C183.223 254.376 184.215 254.813 184.919 255.688C185.633 256.552 185.991 257.629 185.991 258.92C185.991 259.155 185.98 259.336 185.959 259.464H179.751C179.857 260.136 180.129 260.664 180.567 261.048C181.004 261.421 181.543 261.608 182.183 261.608C183.015 261.608 183.777 261.272 184.471 260.6L185.607 261.608C184.732 262.664 183.58 263.192 182.151 263.192ZM179.735 258.184H184.071C184.007 257.533 183.788 257 183.415 256.584C183.041 256.168 182.545 255.96 181.927 255.96C181.34 255.96 180.849 256.168 180.455 256.584C180.06 256.989 179.82 257.523 179.735 258.184Z" fill="black"/>
</svg>
