<svg width="205" height="269" viewBox="0 0 205 269" fill="none" xmlns="http://www.w3.org/2000/svg">
<circle cx="102.5" cy="102.5" r="102.5" fill="#5D3128"/>
<mask id="mask0_518_249" style="mask-type:alpha" maskUnits="userSpaceOnUse" x="0" y="0" width="205" height="205">
<circle cx="102.5" cy="102.5" r="102.5" fill="#C4C4C4"/>
</mask>
<g mask="url(#mask0_518_249)">
<path d="M98.8724 84.2872V-6H161.681C174.33 -6 219.692 35.4362 225.798 54.6277C231.904 73.8191 299.511 128.34 312.596 151.021C325.681 173.702 79.2447 240 58.7447 241.309C42.3447 242.355 -43.9326 46.8475 -56 11.8085L98.8724 84.2872Z" fill="#FEAD04"/>
</g>
<circle cx="102.5" cy="102.5" r="79.5" fill="white"/>
<path d="M80.2605 126H91.7205V83.7H83.2605L70.9605 87.18L73.1805 96.18L80.2605 94.56V126ZM116.253 126.84C125.433 126.84 132.933 121.14 132.933 111.72C132.933 103.2 126.453 98.52 119.073 98.52C114.933 98.52 112.233 100.08 110.013 101.76C110.553 96.48 113.013 92.82 117.933 92.82C121.293 92.82 123.693 94.08 126.273 96L131.733 87.78C127.713 84.78 123.633 83.16 117.753 83.16C104.613 83.16 98.253 93.12 98.253 106.2C98.253 114.18 100.293 118.92 103.413 122.04C106.413 125.04 110.313 126.84 116.253 126.84ZM115.773 117.78C112.113 117.78 109.833 115.38 109.833 112.32C109.833 109.2 111.993 106.86 115.653 106.86C119.313 106.86 121.593 109.26 121.593 112.26C121.593 115.44 119.433 117.78 115.773 117.78Z" fill="#FEAD04"/>
<path d="M10.6353 241.128C10.1766 241.128 9.72331 241.069 9.27531 240.952L9.46731 239.336C9.65931 239.4 9.87265 239.432 10.1073 239.432C10.3633 239.432 10.582 239.395 10.7633 239.32C10.9553 239.235 11.1526 239.043 11.3553 238.744C11.5686 238.445 11.734 238.04 11.8513 237.528C11.9793 237.005 12.086 236.28 12.1713 235.352C12.2566 234.424 12.2993 233.309 12.2993 232.008V229.8H19.9793V241H18.0113V231.576H14.1393V232.584C14.1393 234.323 14.0646 235.768 13.9153 236.92C13.766 238.061 13.5313 238.936 13.2113 239.544C12.8913 240.141 12.5286 240.557 12.1233 240.792C11.7286 241.016 11.2326 241.128 10.6353 241.128ZM26.5177 241.192C25.2804 241.192 24.2457 240.781 23.4137 239.96C22.5924 239.139 22.1817 238.077 22.1817 236.776C22.1817 235.549 22.571 234.509 23.3497 233.656C24.1284 232.803 25.115 232.376 26.3097 232.376C27.5897 232.376 28.5817 232.813 29.2857 233.688C30.0004 234.552 30.3577 235.629 30.3577 236.92C30.3577 237.155 30.347 237.336 30.3257 237.464H24.1177C24.2244 238.136 24.4964 238.664 24.9337 239.048C25.371 239.421 25.9097 239.608 26.5497 239.608C27.3817 239.608 28.1444 239.272 28.8377 238.6L29.9737 239.608C29.099 240.664 27.947 241.192 26.5177 241.192ZM24.1017 236.184H28.4377C28.3737 235.533 28.155 235 27.7817 234.584C27.4084 234.168 26.9124 233.96 26.2937 233.96C25.707 233.96 25.2164 234.168 24.8217 234.584C24.427 234.989 24.187 235.523 24.1017 236.184ZM34.1099 241V234.216H31.3899V232.552H38.7819V234.216H36.0619V241H34.1099ZM49.1304 241.192C47.8504 241.192 46.7838 240.765 45.9304 239.912C45.0771 239.059 44.6504 238.019 44.6504 236.792C44.6504 235.565 45.0824 234.525 45.9464 233.672C46.8104 232.808 47.8824 232.376 49.1624 232.376C50.4424 232.376 51.5091 232.803 52.3624 233.656C53.2264 234.509 53.6584 235.555 53.6584 236.792C53.6584 238.008 53.2264 239.048 52.3624 239.912C51.4984 240.765 50.4211 241.192 49.1304 241.192ZM49.1624 239.512C49.9304 239.512 50.5491 239.251 51.0184 238.728C51.4878 238.205 51.7224 237.56 51.7224 236.792C51.7224 236.035 51.4771 235.395 50.9864 234.872C50.4958 234.339 49.8771 234.072 49.1304 234.072C48.3731 234.072 47.7598 234.333 47.2904 234.856C46.8211 235.379 46.5864 236.024 46.5864 236.792C46.5864 237.539 46.8318 238.179 47.3224 238.712C47.8131 239.245 48.4264 239.512 49.1624 239.512ZM55.6301 241V232.552H63.1661V241H61.2301V234.216H57.5661V241H55.6301ZM65.5988 241V232.552H67.5348V235.512H69.3108C70.3135 235.512 71.1241 235.736 71.7428 236.184C72.3615 236.632 72.6708 237.299 72.6708 238.184C72.6708 239.059 72.3828 239.747 71.8068 240.248C71.2308 240.749 70.4468 241 69.4548 241H65.5988ZM67.5348 239.432H69.1988C69.6895 239.432 70.0681 239.325 70.3348 239.112C70.6015 238.899 70.7348 238.589 70.7348 238.184C70.7348 237.811 70.5961 237.523 70.3188 237.32C70.0521 237.117 69.6681 237.016 69.1668 237.016H67.5348V239.432ZM73.9508 241V232.552H75.8868V241H73.9508ZM80.1256 241V234.216H77.4056V232.552H84.7976V234.216H82.0776V241H80.1256ZM93.4212 241H91.5012V239.96C90.8185 240.771 89.9065 241.176 88.7652 241.176C87.9225 241.176 87.2079 240.947 86.6212 240.488C86.0452 240.019 85.7572 239.368 85.7572 238.536C85.7572 237.629 86.0719 236.941 86.7012 236.472C87.3305 236.003 88.1572 235.768 89.1812 235.768C90.0025 235.768 90.7812 235.885 91.5172 236.12V235.96C91.5172 235.373 91.3359 234.925 90.9732 234.616C90.6212 234.307 90.1092 234.152 89.4372 234.152C88.6692 234.152 87.8639 234.328 87.0212 234.68L86.4932 233.128C87.5385 232.659 88.6105 232.424 89.7092 232.424C90.9359 232.424 91.8585 232.733 92.4772 233.352C93.1065 233.971 93.4212 234.851 93.4212 235.992V241ZM91.5492 237.944V237.464C90.9732 237.24 90.3279 237.128 89.6132 237.128C89.0052 237.128 88.5305 237.245 88.1892 237.48C87.8479 237.715 87.6772 238.045 87.6772 238.472C87.6772 238.856 87.8319 239.16 88.1412 239.384C88.4505 239.608 88.8399 239.72 89.3092 239.72C89.9599 239.72 90.4932 239.555 90.9092 239.224C91.3359 238.893 91.5492 238.467 91.5492 237.944ZM100.521 243.56V232.552H102.457V233.96C103.203 232.904 104.158 232.376 105.321 232.376C106.387 232.376 107.31 232.776 108.089 233.576C108.867 234.365 109.257 235.437 109.257 236.792C109.257 238.125 108.867 239.192 108.089 239.992C107.31 240.781 106.387 241.176 105.321 241.176C104.158 241.176 103.203 240.68 102.457 239.688V243.56H100.521ZM104.873 239.496C105.555 239.496 106.126 239.245 106.585 238.744C107.054 238.243 107.289 237.581 107.289 236.76C107.289 235.96 107.054 235.309 106.585 234.808C106.115 234.307 105.545 234.056 104.873 234.056C104.201 234.056 103.619 234.312 103.129 234.824C102.649 235.336 102.409 235.992 102.409 236.792C102.409 237.581 102.649 238.232 103.129 238.744C103.619 239.245 104.201 239.496 104.873 239.496ZM118.327 241H116.407V239.96C115.725 240.771 114.813 241.176 113.671 241.176C112.829 241.176 112.114 240.947 111.527 240.488C110.951 240.019 110.663 239.368 110.663 238.536C110.663 237.629 110.978 236.941 111.607 236.472C112.237 236.003 113.063 235.768 114.087 235.768C114.909 235.768 115.687 235.885 116.423 236.12V235.96C116.423 235.373 116.242 234.925 115.879 234.616C115.527 234.307 115.015 234.152 114.343 234.152C113.575 234.152 112.77 234.328 111.927 234.68L111.399 233.128C112.445 232.659 113.517 232.424 114.615 232.424C115.842 232.424 116.765 232.733 117.383 233.352C118.013 233.971 118.327 234.851 118.327 235.992V241ZM116.455 237.944V237.464C115.879 237.24 115.234 237.128 114.519 237.128C113.911 237.128 113.437 237.245 113.095 237.48C112.754 237.715 112.583 238.045 112.583 238.472C112.583 238.856 112.738 239.16 113.047 239.384C113.357 239.608 113.746 239.72 114.215 239.72C114.866 239.72 115.399 239.555 115.815 239.224C116.242 238.893 116.455 238.467 116.455 237.944ZM123.51 241.192C122.059 241.192 120.827 240.76 119.814 239.896L120.726 238.616C121.515 239.288 122.401 239.624 123.382 239.624C123.83 239.624 124.209 239.517 124.518 239.304C124.827 239.08 124.982 238.797 124.982 238.456C124.982 238.136 124.833 237.88 124.534 237.688C124.235 237.496 123.814 237.4 123.27 237.4H122.23V236.008H123.27C123.718 236.008 124.075 235.907 124.342 235.704C124.619 235.491 124.758 235.224 124.758 234.904C124.758 234.616 124.625 234.387 124.358 234.216C124.102 234.035 123.771 233.944 123.366 233.944C122.427 233.944 121.627 234.232 120.966 234.808L120.102 233.592C121.03 232.781 122.177 232.376 123.542 232.376C124.47 232.376 125.227 232.589 125.814 233.016C126.401 233.443 126.694 233.987 126.694 234.648C126.694 235.544 126.251 236.184 125.366 236.568C126.39 236.931 126.902 237.613 126.902 238.616C126.902 239.341 126.587 239.955 125.958 240.456C125.329 240.947 124.513 241.192 123.51 241.192ZM128.911 243.56V232.552H130.847V233.96C131.594 232.904 132.549 232.376 133.711 232.376C134.778 232.376 135.701 232.776 136.479 233.576C137.258 234.365 137.647 235.437 137.647 236.792C137.647 238.125 137.258 239.192 136.479 239.992C135.701 240.781 134.778 241.176 133.711 241.176C132.549 241.176 131.594 240.68 130.847 239.688V243.56H128.911ZM133.263 239.496C133.946 239.496 134.517 239.245 134.975 238.744C135.445 238.243 135.679 237.581 135.679 236.76C135.679 235.96 135.445 235.309 134.975 234.808C134.506 234.307 133.935 234.056 133.263 234.056C132.591 234.056 132.01 234.312 131.519 234.824C131.039 235.336 130.799 235.992 130.799 236.792C130.799 237.581 131.039 238.232 131.519 238.744C132.01 239.245 132.591 239.496 133.263 239.496ZM146.718 241H144.798V239.96C144.115 240.771 143.203 241.176 142.062 241.176C141.219 241.176 140.505 240.947 139.918 240.488C139.342 240.019 139.054 239.368 139.054 238.536C139.054 237.629 139.369 236.941 139.998 236.472C140.627 236.003 141.454 235.768 142.478 235.768C143.299 235.768 144.078 235.885 144.814 236.12V235.96C144.814 235.373 144.633 234.925 144.27 234.616C143.918 234.307 143.406 234.152 142.734 234.152C141.966 234.152 141.161 234.328 140.318 234.68L139.79 233.128C140.835 232.659 141.907 232.424 143.006 232.424C144.233 232.424 145.155 232.733 145.774 233.352C146.403 233.971 146.718 234.851 146.718 235.992V241ZM144.846 237.944V237.464C144.27 237.24 143.625 237.128 142.91 237.128C142.302 237.128 141.827 237.245 141.486 237.48C141.145 237.715 140.974 238.045 140.974 238.472C140.974 238.856 141.129 239.16 141.438 239.384C141.747 239.608 142.137 239.72 142.606 239.72C143.257 239.72 143.79 239.555 144.206 239.224C144.633 238.893 144.846 238.467 144.846 237.944ZM153.149 239.512C153.863 239.512 154.445 239.267 154.893 238.776C155.351 238.275 155.581 237.656 155.581 236.92C155.581 236.195 155.341 235.581 154.861 235.08C154.391 234.568 153.81 234.312 153.117 234.312C152.413 234.312 151.831 234.563 151.373 235.064C150.925 235.565 150.701 236.184 150.701 236.92C150.701 237.645 150.935 238.259 151.405 238.76C151.874 239.261 152.455 239.512 153.149 239.512ZM153.117 241.192C151.751 241.192 150.685 240.76 149.917 239.896C149.149 239.032 148.765 237.821 148.765 236.264C148.765 235.763 148.775 235.325 148.797 234.952C148.829 234.568 148.882 234.157 148.957 233.72C149.031 233.272 149.143 232.883 149.293 232.552C149.453 232.221 149.65 231.907 149.885 231.608C150.13 231.299 150.439 231.043 150.813 230.84C151.197 230.627 151.639 230.467 152.141 230.36L156.749 229.4L157.069 230.952L152.461 231.96C151.693 232.12 151.143 232.408 150.813 232.824C150.482 233.229 150.29 233.741 150.237 234.36C150.493 233.933 150.893 233.565 151.437 233.256C151.991 232.936 152.674 232.776 153.485 232.776C154.583 232.776 155.527 233.176 156.317 233.976C157.117 234.765 157.517 235.736 157.517 236.888C157.517 238.072 157.095 239.085 156.253 239.928C155.421 240.771 154.375 241.192 153.117 241.192ZM163.505 241.192C162.225 241.192 161.159 240.765 160.305 239.912C159.452 239.059 159.025 238.019 159.025 236.792C159.025 235.565 159.457 234.525 160.321 233.672C161.185 232.808 162.257 232.376 163.537 232.376C164.817 232.376 165.884 232.803 166.737 233.656C167.601 234.509 168.033 235.555 168.033 236.792C168.033 238.008 167.601 239.048 166.737 239.912C165.873 240.765 164.796 241.192 163.505 241.192ZM163.537 239.512C164.305 239.512 164.924 239.251 165.393 238.728C165.863 238.205 166.097 237.56 166.097 236.792C166.097 236.035 165.852 235.395 165.361 234.872C164.871 234.339 164.252 234.072 163.505 234.072C162.748 234.072 162.135 234.333 161.665 234.856C161.196 235.379 160.961 236.024 160.961 236.792C160.961 237.539 161.207 238.179 161.697 238.712C162.188 239.245 162.801 239.512 163.537 239.512ZM171.813 241V234.216H169.093V232.552H176.485V234.216H173.765V241H171.813ZM182.037 241.192C180.757 241.192 179.69 240.765 178.837 239.912C177.983 239.059 177.557 238.019 177.557 236.792C177.557 235.565 177.989 234.525 178.853 233.672C179.717 232.808 180.789 232.376 182.069 232.376C183.349 232.376 184.415 232.803 185.269 233.656C186.133 234.509 186.565 235.555 186.565 236.792C186.565 238.008 186.133 239.048 185.269 239.912C184.405 240.765 183.327 241.192 182.037 241.192ZM182.069 239.512C182.837 239.512 183.455 239.251 183.925 238.728C184.394 238.205 184.629 237.56 184.629 236.792C184.629 236.035 184.383 235.395 183.893 234.872C183.402 234.339 182.783 234.072 182.037 234.072C181.279 234.072 180.666 234.333 180.197 234.856C179.727 235.379 179.493 236.024 179.493 236.792C179.493 237.539 179.738 238.179 180.229 238.712C180.719 239.245 181.333 239.512 182.069 239.512ZM188.536 241V232.552H190.456V236.6L194.136 232.552H196.408L193.128 236.104L196.68 241H194.392L191.832 237.512L190.456 238.968V241H188.536ZM51.9973 263V254.552H53.8853V260.216C55.6559 257.699 56.9893 255.811 57.8853 254.552H59.7093V263H57.8373V257.368L53.8213 263H51.9973ZM66.9348 263V254.552H71.2708C72.1134 254.552 72.7854 254.744 73.2868 255.128C73.7988 255.501 74.0548 256.013 74.0548 256.664C74.0548 257.549 73.6014 258.195 72.6948 258.6C73.8574 258.931 74.4388 259.635 74.4388 260.712C74.4388 261.427 74.1561 261.987 73.5908 262.392C73.0361 262.797 72.2788 263 71.3188 263H66.9348ZM68.8388 261.464H71.0308C71.4894 261.464 71.8414 261.368 72.0868 261.176C72.3428 260.973 72.4708 260.707 72.4708 260.376C72.4708 260.056 72.3374 259.805 72.0708 259.624C71.8148 259.443 71.4361 259.352 70.9348 259.352H68.8388V261.464ZM68.8388 258.04H70.8228C71.2174 258.04 71.5268 257.944 71.7508 257.752C71.9748 257.56 72.0868 257.309 72.0868 257C72.0868 256.712 71.9854 256.483 71.7828 256.312C71.5801 256.131 71.2708 256.04 70.8548 256.04H68.8388V258.04ZM76.3723 263V254.552H78.3083V257.976H82.0363V254.552H83.9722V263H82.0363V259.592H78.3083V263H76.3723ZM90.2755 263.192C89.0382 263.192 88.0035 262.781 87.1715 261.96C86.3502 261.139 85.9395 260.077 85.9395 258.776C85.9395 257.549 86.3288 256.509 87.1075 255.656C87.8862 254.803 88.8728 254.376 90.0675 254.376C91.3475 254.376 92.3395 254.813 93.0435 255.688C93.7582 256.552 94.1155 257.629 94.1155 258.92C94.1155 259.155 94.1048 259.336 94.0835 259.464H87.8755C87.9822 260.136 88.2542 260.664 88.6915 261.048C89.1288 261.421 89.6675 261.608 90.3075 261.608C91.1395 261.608 91.9022 261.272 92.5955 260.6L93.7315 261.608C92.8568 262.664 91.7048 263.192 90.2755 263.192ZM87.8595 258.184H92.1955C92.1315 257.533 91.9128 257 91.5395 256.584C91.1662 256.168 90.6702 255.96 90.0515 255.96C89.4648 255.96 88.9742 256.168 88.5795 256.584C88.1848 256.989 87.9448 257.523 87.8595 258.184ZM95.0838 265.032V261.336H95.9958C96.6251 260.077 96.9398 258.163 96.9398 255.592V254.552H103.484V261.336H104.684L104.428 265.032H102.812V263H96.8918L96.6998 265.032H95.0838ZM97.9798 261.336H101.548V256.216H98.7638V257.336C98.7638 258.904 98.5024 260.237 97.9798 261.336ZM106.294 265.56V254.552H108.23V255.96C108.977 254.904 109.931 254.376 111.094 254.376C112.161 254.376 113.083 254.776 113.862 255.576C114.641 256.365 115.03 257.437 115.03 258.792C115.03 260.125 114.641 261.192 113.862 261.992C113.083 262.781 112.161 263.176 111.094 263.176C109.931 263.176 108.977 262.68 108.23 261.688V265.56H106.294ZM110.646 261.496C111.329 261.496 111.899 261.245 112.358 260.744C112.827 260.243 113.062 259.581 113.062 258.76C113.062 257.96 112.827 257.309 112.358 256.808C111.889 256.307 111.318 256.056 110.646 256.056C109.974 256.056 109.393 256.312 108.902 256.824C108.422 257.336 108.182 257.992 108.182 258.792C108.182 259.581 108.422 260.232 108.902 260.744C109.393 261.245 109.974 261.496 110.646 261.496ZM120.885 263.192C119.648 263.192 118.613 262.781 117.781 261.96C116.96 261.139 116.549 260.077 116.549 258.776C116.549 257.549 116.938 256.509 117.717 255.656C118.496 254.803 119.482 254.376 120.677 254.376C121.957 254.376 122.949 254.813 123.653 255.688C124.368 256.552 124.725 257.629 124.725 258.92C124.725 259.155 124.714 259.336 124.693 259.464H118.485C118.592 260.136 118.864 260.664 119.301 261.048C119.738 261.421 120.277 261.608 120.917 261.608C121.749 261.608 122.512 261.272 123.205 260.6L124.341 261.608C123.466 262.664 122.314 263.192 120.885 263.192ZM118.469 258.184H122.805C122.741 257.533 122.522 257 122.149 256.584C121.776 256.168 121.28 255.96 120.661 255.96C120.074 255.96 119.584 256.168 119.189 256.584C118.794 256.989 118.554 257.523 118.469 258.184ZM126.669 263V254.552H128.605V257.976H132.333V254.552H134.269V263H132.333V259.592H128.605V263H126.669ZM136.7 263V254.552H138.588V260.216C140.359 257.699 141.692 255.811 142.588 254.552H144.412V263H142.54V257.368L138.524 263H136.7ZM146.073 263L148.409 259.832C147.812 259.651 147.332 259.347 146.969 258.92C146.617 258.483 146.441 257.944 146.441 257.304C146.441 256.472 146.734 255.805 147.321 255.304C147.908 254.803 148.724 254.552 149.769 254.552H154.009V263H152.073V260.152H150.345L148.345 263H146.073ZM150.041 258.696H152.073V256.12H150.025C149.513 256.12 149.108 256.237 148.809 256.472C148.521 256.696 148.377 257.005 148.377 257.4C148.377 257.805 148.526 258.125 148.825 258.36C149.134 258.584 149.54 258.696 150.041 258.696Z" fill="black"/>
</svg>
