<svg width="220" height="269" viewBox="0 0 220 269" fill="none" xmlns="http://www.w3.org/2000/svg">
<circle cx="109.5" cy="102.5" r="102.5" fill="#5D3128"/>
<mask id="mask0_518_239" style="mask-type:alpha" maskUnits="userSpaceOnUse" x="7" y="0" width="205" height="205">
<circle cx="109.5" cy="102.5" r="102.5" fill="#C4C4C4"/>
</mask>
<g mask="url(#mask0_518_239)">
<path d="M108.628 88.9786V-1.30859H45.8191C33.1702 -1.30859 -12.1915 40.1276 -18.2979 59.3191C-24.4043 78.5106 -92.0106 133.032 -105.096 155.713C-118.181 178.394 128.255 244.691 148.755 246C165.155 247.047 193.39 177.23 205.457 142.191L108.628 88.9786Z" fill="#FEAD04"/>
</g>
<circle cx="109.5" cy="102.5" r="79.5" fill="white"/>
<path d="M87.4131 120.84C79.9731 120.84 74.0131 118.36 69.5331 113.4L76.8531 106.08C79.9731 109.28 83.3131 110.88 86.8731 110.88C88.5131 110.88 89.8131 110.5 90.7731 109.74C91.7731 108.94 92.2731 107.86 92.2731 106.5C92.2731 105.14 91.6731 104.08 90.4731 103.32C89.2731 102.56 87.5931 102.18 85.4331 102.18H80.5131L78.8331 96.12L88.4931 87.42H72.4131V78H102.773V86.34L92.7531 94.92C99.9931 96.52 103.613 100.5 103.613 106.86C103.613 111.06 102.093 114.44 99.0531 117C96.0531 119.56 92.1731 120.84 87.4131 120.84ZM141.659 114.54C138.099 118.74 133.399 120.84 127.559 120.84C121.719 120.84 117.019 118.76 113.459 114.6C109.939 110.4 108.179 105.2 108.179 99C108.179 92.88 109.979 87.72 113.579 83.52C117.179 79.28 121.879 77.16 127.679 77.16C133.519 77.16 138.199 79.26 141.719 83.46C145.279 87.66 147.059 92.84 147.059 99C147.059 105.12 145.259 110.3 141.659 114.54ZM122.039 107.34C123.479 109.46 125.359 110.52 127.679 110.52C129.999 110.52 131.859 109.46 133.259 107.34C134.659 105.18 135.359 102.4 135.359 99C135.359 95.64 134.619 92.88 133.139 90.72C131.699 88.56 129.839 87.48 127.559 87.48C125.239 87.48 123.379 88.54 121.979 90.66C120.579 92.78 119.879 95.56 119.879 99C119.879 102.4 120.599 105.18 122.039 107.34Z" fill="#FEAD04"/>
<path d="M44.3666 241.192C46.4626 241.192 47.7426 240.424 48.9106 239.208L47.6466 237.928C46.6866 238.824 45.8066 239.384 44.4306 239.384C42.2866 239.384 40.7346 237.592 40.7346 235.4C40.7346 233.176 42.2866 231.416 44.4306 231.416C45.7106 231.416 46.6706 231.976 47.5666 232.808L48.8306 231.352C47.7586 230.328 46.5106 229.608 44.4466 229.608C41.0546 229.608 38.6706 232.216 38.6706 235.4C38.6706 238.648 41.1026 241.192 44.3666 241.192ZM52.5631 241H54.5151V234.216H57.2351V232.552H49.8431V234.216H52.5631V241ZM58.7707 243.56H60.7067V239.688C61.2987 240.472 62.1787 241.176 63.5707 241.176C65.5867 241.176 67.5067 239.592 67.5067 236.792C67.5067 233.96 65.5707 232.376 63.5707 232.376C62.2107 232.376 61.3307 233.08 60.7067 233.96V232.552H58.7707V243.56ZM63.1227 239.496C61.8107 239.496 60.6587 238.424 60.6587 236.792C60.6587 235.144 61.8107 234.056 63.1227 234.056C64.4347 234.056 65.5387 235.128 65.5387 236.76C65.5387 238.456 64.4507 239.496 63.1227 239.496ZM76.5774 241V235.992C76.5774 233.736 75.3614 232.424 72.8654 232.424C71.4894 232.424 70.5774 232.712 69.6494 233.128L70.1774 234.68C70.9454 234.36 71.6494 234.152 72.5934 234.152C73.9374 234.152 74.6734 234.792 74.6734 235.96V236.12C74.0174 235.912 73.3614 235.768 72.3374 235.768C70.3694 235.768 68.9134 236.664 68.9134 238.536C68.9134 240.264 70.3214 241.176 71.9214 241.176C73.2014 241.176 74.0814 240.648 74.6574 239.96V241H76.5774ZM74.7054 237.944C74.7054 239 73.7454 239.72 72.4654 239.72C71.5534 239.72 70.8334 239.272 70.8334 238.472C70.8334 237.624 71.5534 237.128 72.7694 237.128C73.5214 237.128 74.2094 237.272 74.7054 237.464V237.944ZM78.8801 241H80.8161V237.592H84.5441V241H86.4801V232.552H84.5441V235.976H80.8161V232.552H78.8801V241ZM88.4473 243.32C90.0633 243.192 90.9113 242.44 90.9113 240.664V238.808H88.7833V241H89.5993C89.5993 241.064 89.6153 241.112 89.6153 241.176C89.6153 241.896 89.1513 242.328 88.2393 242.504L88.4473 243.32ZM98.0051 241H102.389C104.309 241 105.509 240.136 105.509 238.712C105.509 237.512 104.789 236.888 103.765 236.6C104.485 236.28 105.125 235.736 105.125 234.664C105.125 233.368 104.021 232.552 102.341 232.552H98.0051V241ZM99.9091 239.464V237.352H102.005C103.045 237.352 103.541 237.768 103.541 238.376C103.541 239.032 103.045 239.464 102.101 239.464H99.9091ZM99.9091 236.04V234.04H101.925C102.789 234.04 103.157 234.456 103.157 235C103.157 235.608 102.709 236.04 101.893 236.04H99.9091ZM112.239 241H114.159V238.968L115.535 237.512L118.095 241H120.383L116.831 236.104L120.111 232.552H117.839L114.159 236.6V232.552H112.239V241ZM125.74 241.192C128.348 241.192 130.268 239.192 130.268 236.792C130.268 234.344 128.364 232.376 125.772 232.376C123.18 232.376 121.26 234.376 121.26 236.792C121.26 239.224 123.164 241.192 125.74 241.192ZM125.772 239.512C124.268 239.512 123.196 238.264 123.196 236.792C123.196 235.288 124.188 234.072 125.74 234.072C127.26 234.072 128.332 235.304 128.332 236.792C128.332 238.28 127.34 239.512 125.772 239.512ZM134.047 241H135.999V234.216H138.719V232.552H131.327V234.216H134.047V241ZM144.271 241.192C146.879 241.192 148.799 239.192 148.799 236.792C148.799 234.344 146.895 232.376 144.303 232.376C141.711 232.376 139.791 234.376 139.791 236.792C139.791 239.224 141.695 241.192 144.271 241.192ZM144.303 239.512C142.799 239.512 141.727 238.264 141.727 236.792C141.727 235.288 142.719 234.072 144.271 234.072C145.791 234.072 146.863 235.304 146.863 236.792C146.863 238.28 145.871 239.512 144.303 239.512ZM150.771 243.56H152.707V239.688C153.299 240.472 154.179 241.176 155.571 241.176C157.587 241.176 159.507 239.592 159.507 236.792C159.507 233.96 157.571 232.376 155.571 232.376C154.211 232.376 153.331 233.08 152.707 233.96V232.552H150.771V243.56ZM155.123 239.496C153.811 239.496 152.659 238.424 152.659 236.792C152.659 235.144 153.811 234.056 155.123 234.056C156.435 234.056 157.539 235.128 157.539 236.76C157.539 238.456 156.451 239.496 155.123 239.496ZM161.489 241H165.345C167.329 241 168.561 239.928 168.561 238.184C168.561 236.344 167.105 235.512 165.201 235.512H163.425V232.552H161.489V241ZM163.425 239.432V237.016H165.057C166.049 237.016 166.625 237.432 166.625 238.184C166.625 239 166.065 239.432 165.089 239.432H163.425ZM169.841 241H171.777V232.552H169.841V241ZM173.472 241H175.536L177.6 238.04L179.68 241H181.792L178.672 236.664L181.664 232.552H179.6L177.648 235.336L175.696 232.552H173.584L176.576 236.712L173.472 241ZM8.70038 265.56H10.6364V261.688C11.2284 262.472 12.1084 263.176 13.5004 263.176C15.5164 263.176 17.4364 261.592 17.4364 258.792C17.4364 255.96 15.5004 254.376 13.5004 254.376C12.1404 254.376 11.2604 255.08 10.6364 255.96V254.552H8.70038V265.56ZM13.0524 261.496C11.7404 261.496 10.5884 260.424 10.5884 258.792C10.5884 257.144 11.7404 256.056 13.0524 256.056C14.3644 256.056 15.4684 257.128 15.4684 258.76C15.4684 260.456 14.3804 261.496 13.0524 261.496ZM26.5071 263V257.992C26.5071 255.736 25.2911 254.424 22.7951 254.424C21.4191 254.424 20.5071 254.712 19.5791 255.128L20.1071 256.68C20.8751 256.36 21.5791 256.152 22.5231 256.152C23.8671 256.152 24.6031 256.792 24.6031 257.96V258.12C23.9471 257.912 23.2911 257.768 22.2671 257.768C20.2991 257.768 18.8431 258.664 18.8431 260.536C18.8431 262.264 20.2511 263.176 21.8511 263.176C23.1311 263.176 24.0111 262.648 24.5871 261.96V263H26.5071ZM24.6351 259.944C24.6351 261 23.6751 261.72 22.3951 261.72C21.4831 261.72 20.7631 261.272 20.7631 260.472C20.7631 259.624 21.4831 259.128 22.6991 259.128C23.4511 259.128 24.1391 259.272 24.6351 259.464V259.944ZM32.9378 261.512C31.5458 261.512 30.4898 260.36 30.4898 258.92C30.4898 257.464 31.4818 256.312 32.9058 256.312C34.3138 256.312 35.3698 257.48 35.3698 258.92C35.3698 260.36 34.3938 261.512 32.9378 261.512ZM32.9058 263.192C35.4498 263.192 37.3058 261.224 37.3058 258.888C37.3058 256.568 35.4498 254.776 33.2738 254.776C31.5138 254.776 30.4578 255.624 30.0258 256.36C30.1218 255.24 30.6178 254.312 32.2498 253.96L36.8578 252.952L36.5378 251.4L31.9298 252.36C28.8578 253 28.5538 255.64 28.5538 258.264C28.5538 261.384 30.1698 263.192 32.9058 263.192ZM43.2945 263.192C45.9025 263.192 47.8225 261.192 47.8225 258.792C47.8225 256.344 45.9185 254.376 43.3265 254.376C40.7345 254.376 38.8145 256.376 38.8145 258.792C38.8145 261.224 40.7185 263.192 43.2945 263.192ZM43.3265 261.512C41.8225 261.512 40.7505 260.264 40.7505 258.792C40.7505 257.288 41.7425 256.072 43.2945 256.072C44.8145 256.072 45.8865 257.304 45.8865 258.792C45.8865 260.28 44.8945 261.512 43.3265 261.512ZM51.6021 263H53.5541V256.216H56.2741V254.552H48.8821V256.216H51.6021V263ZM64.8978 263V257.992C64.8978 255.736 63.6818 254.424 61.1858 254.424C59.8098 254.424 58.8978 254.712 57.9698 255.128L58.4978 256.68C59.2658 256.36 59.9698 256.152 60.9138 256.152C62.2578 256.152 62.9938 256.792 62.9938 257.96V258.12C62.3378 257.912 61.6818 257.768 60.6578 257.768C58.6898 257.768 57.2338 258.664 57.2338 260.536C57.2338 262.264 58.6418 263.176 60.2418 263.176C61.5218 263.176 62.4018 262.648 62.9778 261.96V263H64.8978ZM63.0258 259.944C63.0258 261 62.0658 261.72 60.7858 261.72C59.8738 261.72 59.1538 261.272 59.1538 260.472C59.1538 259.624 59.8738 259.128 61.0898 259.128C61.8418 259.128 62.5298 259.272 63.0258 259.464V259.944ZM74.7044 263.192C77.2644 263.192 78.9444 261.192 78.9444 258.792C78.9444 256.36 77.2804 254.392 74.7364 254.392C72.4804 254.392 70.9124 255.96 70.5764 257.976H69.1204V254.552H67.2004V263H69.1204V259.576H70.5764C70.8804 261.64 72.4484 263.192 74.7044 263.192ZM74.7364 261.512C73.2804 261.512 72.4324 260.28 72.4324 258.792C72.4324 257.288 73.2004 256.072 74.7044 256.072C76.1604 256.072 77.0244 257.304 77.0244 258.792C77.0244 260.28 76.2404 261.512 74.7364 261.512ZM82.7271 263H84.6791V256.216H87.3991V254.552H80.0071V256.216H82.7271V263ZM93.7316 263H95.6676V259.592H99.3956V263H101.332V254.552H99.3956V257.976H95.6676V254.552H93.7316V263ZM110.851 263V257.992C110.851 255.736 109.635 254.424 107.139 254.424C105.763 254.424 104.851 254.712 103.923 255.128L104.451 256.68C105.219 256.36 105.923 256.152 106.867 256.152C108.211 256.152 108.947 256.792 108.947 257.96V258.12C108.291 257.912 107.635 257.768 106.611 257.768C104.643 257.768 103.187 258.664 103.187 260.536C103.187 262.264 104.595 263.176 106.195 263.176C107.475 263.176 108.355 262.648 108.931 261.96V263H110.851ZM108.979 259.944C108.979 261 108.019 261.72 106.739 261.72C105.827 261.72 105.107 261.272 105.107 260.472C105.107 259.624 105.827 259.128 107.043 259.128C107.795 259.128 108.483 259.272 108.979 259.464V259.944ZM113.154 263H125.186V254.552H123.25V261.336H120.13V254.552H118.21V261.336H115.09V254.552H113.154V263ZM127.622 263H129.446L133.462 257.368V263H135.334V254.552H133.51C132.166 256.44 130.838 258.328 129.51 260.216V254.552H127.622V263ZM146.576 263.192C149.184 263.192 151.104 261.192 151.104 258.792C151.104 256.344 149.2 254.376 146.608 254.376C144.016 254.376 142.096 256.376 142.096 258.792C142.096 261.224 144 263.192 146.576 263.192ZM146.608 261.512C145.104 261.512 144.032 260.264 144.032 258.792C144.032 257.288 145.024 256.072 146.576 256.072C148.096 256.072 149.168 257.304 149.168 258.792C149.168 260.28 148.176 261.512 146.608 261.512ZM157.203 261.512C155.811 261.512 154.755 260.36 154.755 258.92C154.755 257.464 155.747 256.312 157.171 256.312C158.579 256.312 159.635 257.48 159.635 258.92C159.635 260.36 158.659 261.512 157.203 261.512ZM157.171 263.192C159.715 263.192 161.571 261.224 161.571 258.888C161.571 256.568 159.715 254.776 157.539 254.776C155.779 254.776 154.723 255.624 154.291 256.36C154.387 255.24 154.883 254.312 156.515 253.96L161.123 252.952L160.803 251.4L156.195 252.36C153.123 253 152.819 255.64 152.819 258.264C152.819 261.384 154.435 263.192 157.171 263.192ZM164.936 263H168.936C170.936 263 172.168 261.928 172.168 260.184C172.168 258.344 170.712 257.512 168.808 257.512H166.856V254.552H162.6V256.2H164.936V263ZM166.856 261.432V259.016H168.664C169.656 259.016 170.216 259.432 170.216 260.184C170.216 261 169.672 261.432 168.696 261.432H166.856ZM177.729 263.192C179.281 263.192 180.385 262.568 181.185 261.608L180.049 260.6C179.377 261.256 178.705 261.608 177.761 261.608C176.513 261.608 175.537 260.84 175.329 259.464H181.537C181.553 259.368 181.569 259.048 181.569 258.92C181.569 256.488 180.209 254.376 177.521 254.376C175.105 254.376 173.393 256.36 173.393 258.776C173.393 261.416 175.281 263.192 177.729 263.192ZM175.313 258.184C175.489 256.872 176.321 255.96 177.505 255.96C178.785 255.96 179.521 256.936 179.649 258.184H175.313ZM183.513 263H185.433V260.968L186.809 259.512L189.369 263H191.657L188.105 258.104L191.385 254.552H189.113L185.433 258.6V254.552H183.513V263ZM194.805 263H196.757V256.216H199.477V254.552H192.085V256.216H194.805V263ZM201.013 263H204.869C206.853 263 208.085 261.928 208.085 260.184C208.085 258.344 206.629 257.512 204.725 257.512H202.949V254.552H201.013V263ZM202.949 261.432V259.016H204.581C205.573 259.016 206.149 259.432 206.149 260.184C206.149 261 205.589 261.432 204.613 261.432H202.949ZM209.365 263H211.301V254.552H209.365V263Z" fill="black"/>
</svg>
