<svg width="254" height="269" viewBox="0 0 254 269" fill="none" xmlns="http://www.w3.org/2000/svg">
<circle cx="126.5" cy="102.5" r="102.5" fill="#5D3128"/>
<mask id="mask0_518_259" style="mask-type:alpha" maskUnits="userSpaceOnUse" x="24" y="0" width="205" height="205">
<circle cx="126.5" cy="102.5" r="102.5" fill="#C4C4C4"/>
</mask>
<g mask="url(#mask0_518_259)">
<path d="M122.872 84.2872V-6H185.681C198.33 -6 243.692 35.4362 249.798 54.6277C255.904 73.8191 323.511 128.34 336.596 151.021C349.681 173.702 103.245 240 82.7447 241.309C66.3447 242.355 47.0674 331.539 35 296.5L122.872 84.2872Z" fill="#FEAD04"/>
</g>
<circle cx="126.5" cy="102.5" r="79.5" fill="white"/>
<path d="M66.4312 123H99.6712V113.52H82.3312L89.5312 108.48C95.8312 104.04 99.2512 100.5 99.2512 93.78C99.2512 85.74 92.9512 80.28 83.7712 80.28C75.6112 80.28 71.1712 83.46 66.6712 89.28L74.5312 95.82C77.8312 92.04 80.0512 90.42 82.8712 90.42C85.6912 90.42 87.5512 92.04 87.5512 94.68C87.5512 97.2 86.1112 99.24 82.1512 102.24L66.4312 114.24V123ZM123.733 123.84C135.733 123.84 143.233 113.88 143.233 102C143.233 90 135.793 80.16 123.853 80.16C111.913 80.16 104.353 90.12 104.353 102C104.353 114 111.733 123.84 123.733 123.84ZM123.853 113.52C119.173 113.52 116.053 108.72 116.053 102C116.053 95.16 119.113 90.48 123.733 90.48C128.353 90.48 131.533 95.34 131.533 102C131.533 108.78 128.533 113.52 123.853 113.52ZM167.561 123.84C179.561 123.84 187.061 113.88 187.061 102C187.061 90 179.621 80.16 167.681 80.16C155.741 80.16 148.181 90.12 148.181 102C148.181 114 155.561 123.84 167.561 123.84ZM167.681 113.52C163.001 113.52 159.881 108.72 159.881 102C159.881 95.16 162.941 90.48 167.561 90.48C172.181 90.48 175.361 95.34 175.361 102C175.361 108.78 172.361 113.52 167.681 113.52Z" fill="#FEAD04"/>
<path d="M5.065 241H7.033V236.28H12.377V241H14.345V229.8H12.377V234.456H7.033V229.8H5.065V241ZM24.0853 241V235.992C24.0853 233.736 22.8693 232.424 20.3733 232.424C18.9973 232.424 18.0853 232.712 17.1573 233.128L17.6853 234.68C18.4533 234.36 19.1573 234.152 20.1013 234.152C21.4453 234.152 22.1813 234.792 22.1813 235.96V236.12C21.5253 235.912 20.8693 235.768 19.8453 235.768C17.8773 235.768 16.4213 236.664 16.4213 238.536C16.4213 240.264 17.8293 241.176 19.4293 241.176C20.7093 241.176 21.5893 240.648 22.1653 239.96V241H24.0853ZM22.2133 237.944C22.2133 239 21.2533 239.72 19.9733 239.72C19.0613 239.72 18.3413 239.272 18.3413 238.472C18.3413 237.624 19.0613 237.128 20.2773 237.128C21.0293 237.128 21.7173 237.272 22.2133 237.464V237.944ZM26.3879 241H28.2119L32.2279 235.368V241H34.0999V232.552H32.2759C30.9319 234.44 29.6039 236.328 28.2759 238.216V232.552H26.3879V241ZM36.5285 241H38.4165V235.4L41.0565 239.16L43.7125 235.368V241H45.6645V232.552H43.7445L41.0885 236.472L38.4485 232.552H36.5285V241ZM51.963 241.192C53.515 241.192 54.619 240.568 55.419 239.608L54.283 238.6C53.611 239.256 52.939 239.608 51.995 239.608C50.747 239.608 49.771 238.84 49.563 237.464H55.771C55.787 237.368 55.803 237.048 55.803 236.92C55.803 234.488 54.443 232.376 51.755 232.376C49.339 232.376 47.627 234.36 47.627 236.776C47.627 239.416 49.515 241.192 51.963 241.192ZM49.547 236.184C49.723 234.872 50.555 233.96 51.739 233.96C53.019 233.96 53.755 234.936 53.883 236.184H49.547ZM57.7473 241H59.6833V237.592H63.4113V241H65.3472V232.552H63.4113V235.976H59.6833V232.552H57.7473V241ZM71.7945 241.192C74.4025 241.192 76.3225 239.192 76.3225 236.792C76.3225 234.344 74.4185 232.376 71.8265 232.376C69.2345 232.376 67.3145 234.376 67.3145 236.792C67.3145 239.224 69.2185 241.192 71.7945 241.192ZM71.8265 239.512C70.3225 239.512 69.2505 238.264 69.2505 236.792C69.2505 235.288 70.2425 234.072 71.7945 234.072C73.3145 234.072 74.3865 235.304 74.3865 236.792C74.3865 238.28 73.3945 239.512 71.8265 239.512ZM78.2941 241H82.6781C84.5981 241 85.7981 240.136 85.7981 238.712C85.7981 237.512 85.0781 236.888 84.0541 236.6C84.7741 236.28 85.4141 235.736 85.4141 234.664C85.4141 233.368 84.3101 232.552 82.6301 232.552H78.2941V241ZM80.1981 239.464V237.352H82.2941C83.3341 237.352 83.8301 237.768 83.8301 238.376C83.8301 239.032 83.3341 239.464 82.3901 239.464H80.1981ZM80.1981 236.04V234.04H82.2141C83.0781 234.04 83.4461 234.456 83.4461 235C83.4461 235.608 82.9981 236.04 82.1821 236.04H80.1981ZM94.8196 241V235.992C94.8196 233.736 93.6036 232.424 91.1076 232.424C89.7316 232.424 88.8196 232.712 87.8916 233.128L88.4196 234.68C89.1876 234.36 89.8916 234.152 90.8356 234.152C92.1796 234.152 92.9156 234.792 92.9156 235.96V236.12C92.2596 235.912 91.6036 235.768 90.5796 235.768C88.6116 235.768 87.1556 236.664 87.1556 238.536C87.1556 240.264 88.5636 241.176 90.1636 241.176C91.4436 241.176 92.3236 240.648 92.8996 239.96V241H94.8196ZM92.9476 237.944C92.9476 239 91.9876 239.72 90.7076 239.72C89.7956 239.72 89.0756 239.272 89.0756 238.472C89.0756 237.624 89.7956 237.128 91.0116 237.128C91.7636 237.128 92.4516 237.272 92.9476 237.464V237.944ZM97.1223 241H99.0583V237.592H102.786V241H104.722V232.552H102.786V235.976H99.0583V232.552H97.1223V241ZM107.154 241H108.978L112.994 235.368V241H114.866V232.552H113.042C111.698 234.44 110.37 236.328 109.042 238.216V232.552H107.154V241ZM121.166 231.576C122.526 231.576 123.454 230.712 123.662 229.352L122.494 229.128C122.286 229.8 121.886 230.216 121.166 230.216C120.446 230.216 120.046 229.8 119.838 229.128L118.654 229.352C118.862 230.712 119.806 231.576 121.166 231.576ZM117.294 241H119.118L123.134 235.368V241H125.006V232.552H123.182C121.838 234.44 120.51 236.328 119.182 238.216V232.552H117.294V241ZM132.232 241H136.616C138.536 241 139.736 240.136 139.736 238.712C139.736 237.512 139.016 236.888 137.992 236.6C138.712 236.28 139.352 235.736 139.352 234.664C139.352 233.368 138.248 232.552 136.568 232.552H132.232V241ZM134.136 239.464V237.352H136.232C137.272 237.352 137.768 237.768 137.768 238.376C137.768 239.032 137.272 239.464 136.328 239.464H134.136ZM134.136 236.04V234.04H136.152C137.016 234.04 137.384 234.456 137.384 235C137.384 235.608 136.936 236.04 136.12 236.04H134.136ZM141.669 241H145.525C147.509 241 148.741 239.928 148.741 238.184C148.741 236.344 147.285 235.512 145.381 235.512H143.605V232.552H141.669V241ZM143.605 239.432V237.016H145.237C146.229 237.016 146.805 237.432 146.805 238.184C146.805 239 146.245 239.432 145.269 239.432H143.605ZM150.021 241H151.957V232.552H150.021V241ZM154.388 241H156.324V234.216H159.988V241H161.924V232.552H154.388V241ZM166.085 243.608C167.445 243.608 168.197 242.968 168.869 241.24L172.229 232.552H170.213L168.021 238.824L165.621 232.552H163.557L167.077 241C166.757 241.736 166.421 241.976 165.877 241.976C165.477 241.976 165.093 241.848 164.741 241.656L164.085 243.096C164.677 243.416 165.269 243.608 166.085 243.608ZM177.792 241.192C179.44 241.192 180.416 240.536 181.248 239.608L180.08 238.456C179.472 239.08 178.8 239.512 177.888 239.512C176.4 239.512 175.36 238.296 175.36 236.792V236.76C175.36 235.288 176.384 234.072 177.792 234.072C178.768 234.072 179.392 234.504 179.984 235.128L181.184 233.832C180.4 232.968 179.408 232.376 177.808 232.376C175.28 232.376 173.424 234.392 173.424 236.792V236.824C173.424 239.224 175.28 241.192 177.792 241.192ZM182.95 241H184.87V238.968L186.246 237.512L188.806 241H191.094L187.542 236.104L190.822 232.552H188.55L184.87 236.6V232.552H182.95V241ZM199.523 241V235.992C199.523 233.736 198.307 232.424 195.811 232.424C194.435 232.424 193.523 232.712 192.595 233.128L193.123 234.68C193.891 234.36 194.595 234.152 195.539 234.152C196.883 234.152 197.619 234.792 197.619 235.96V236.12C196.963 235.912 196.307 235.768 195.283 235.768C193.315 235.768 191.859 236.664 191.859 238.536C191.859 240.264 193.267 241.176 194.867 241.176C196.147 241.176 197.027 240.648 197.603 239.96V241H199.523ZM197.651 237.944C197.651 239 196.691 239.72 195.411 239.72C194.499 239.72 193.779 239.272 193.779 238.472C193.779 237.624 194.499 237.128 195.715 237.128C196.467 237.128 197.155 237.272 197.651 237.464V237.944ZM205.697 241.192C207.249 241.192 208.353 240.568 209.153 239.608L208.017 238.6C207.345 239.256 206.673 239.608 205.729 239.608C204.481 239.608 203.505 238.84 203.297 237.464H209.505C209.521 237.368 209.537 237.048 209.537 236.92C209.537 234.488 208.177 232.376 205.489 232.376C203.073 232.376 201.361 234.36 201.361 236.776C201.361 239.416 203.249 241.192 205.697 241.192ZM203.281 236.184C203.457 234.872 204.289 233.96 205.473 233.96C206.753 233.96 207.489 234.936 207.617 236.184H203.281ZM211.482 241H213.37V235.4L216.01 239.16L218.666 235.368V241H220.618V232.552H218.698L216.042 236.472L213.402 232.552H211.482V241ZM227.06 241.192C229.668 241.192 231.588 239.192 231.588 236.792C231.588 234.344 229.684 232.376 227.092 232.376C224.5 232.376 222.58 234.376 222.58 236.792C222.58 239.224 224.484 241.192 227.06 241.192ZM227.092 239.512C225.588 239.512 224.516 238.264 224.516 236.792C224.516 235.288 225.508 234.072 227.06 234.072C228.58 234.072 229.652 235.304 229.652 236.792C229.652 238.28 228.66 239.512 227.092 239.512ZM233.56 241H235.496V234.216H239.544V232.552H233.56V241ZM245.091 241.192C247.699 241.192 249.619 239.192 249.619 236.792C249.619 234.344 247.715 232.376 245.123 232.376C242.531 232.376 240.611 234.376 240.611 236.792C240.611 239.224 242.515 241.192 245.091 241.192ZM245.123 239.512C243.619 239.512 242.547 238.264 242.547 236.792C242.547 235.288 243.539 234.072 245.091 234.072C246.611 234.072 247.683 235.304 247.683 236.792C247.683 238.28 246.691 239.512 245.123 239.512ZM71.6851 263.192C74.2931 263.192 76.2131 261.192 76.2131 258.792C76.2131 256.344 74.3091 254.376 71.7171 254.376C69.1251 254.376 67.2051 256.376 67.2051 258.792C67.2051 261.224 69.1091 263.192 71.6851 263.192ZM71.7171 261.512C70.2131 261.512 69.1411 260.264 69.1411 258.792C69.1411 257.288 70.1331 256.072 71.6851 256.072C73.2051 256.072 74.2771 257.304 74.2771 258.792C74.2771 260.28 73.2851 261.512 71.7171 261.512ZM82.3128 261.512C80.9208 261.512 79.8648 260.36 79.8648 258.92C79.8648 257.464 80.8568 256.312 82.2808 256.312C83.6888 256.312 84.7448 257.48 84.7448 258.92C84.7448 260.36 83.7688 261.512 82.3128 261.512ZM82.2808 263.192C84.8248 263.192 86.6808 261.224 86.6808 258.888C86.6808 256.568 84.8248 254.776 82.6488 254.776C80.8888 254.776 79.8328 255.624 79.4008 256.36C79.4968 255.24 79.9928 254.312 81.6248 253.96L86.2328 252.952L85.9128 251.4L81.3048 252.36C78.2328 253 77.9288 255.64 77.9288 258.264C77.9288 261.384 79.5448 263.192 82.2808 263.192ZM92.6695 263.192C95.2775 263.192 97.1975 261.192 97.1975 258.792C97.1975 256.344 95.2935 254.376 92.7015 254.376C90.1095 254.376 88.1895 256.376 88.1895 258.792C88.1895 261.224 90.0935 263.192 92.6695 263.192ZM92.7015 261.512C91.1975 261.512 90.1255 260.264 90.1255 258.792C90.1255 257.288 91.1175 256.072 92.6695 256.072C94.1895 256.072 95.2615 257.304 95.2615 258.792C95.2615 260.28 94.2695 261.512 92.7015 261.512ZM99.1691 265.56H101.105V261.688C101.697 262.472 102.577 263.176 103.969 263.176C105.985 263.176 107.905 261.592 107.905 258.792C107.905 255.96 105.969 254.376 103.969 254.376C102.609 254.376 101.729 255.08 101.105 255.96V254.552H99.1691V265.56ZM103.521 261.496C102.209 261.496 101.057 260.424 101.057 258.792C101.057 257.144 102.209 256.056 103.521 256.056C104.833 256.056 105.937 257.128 105.937 258.76C105.937 260.456 104.849 261.496 103.521 261.496ZM111.616 265.608C112.976 265.608 113.728 264.968 114.4 263.24L117.76 254.552H115.744L113.552 260.824L111.152 254.552H109.088L112.608 263C112.288 263.736 111.952 263.976 111.408 263.976C111.008 263.976 110.624 263.848 110.272 263.656L109.616 265.096C110.208 265.416 110.8 265.608 111.616 265.608ZM118.443 265.032H120.059L120.251 263H126.171V265.032H127.787L128.043 261.336H126.843V254.552H120.299V255.592C120.299 257.96 120.059 259.928 119.355 261.336H118.443V265.032ZM121.339 261.336C121.835 260.296 122.123 258.872 122.123 257.336V256.216H124.907V261.336H121.339ZM133.67 263.192C136.278 263.192 138.198 261.192 138.198 258.792C138.198 256.344 136.294 254.376 133.702 254.376C131.11 254.376 129.19 256.376 129.19 258.792C129.19 261.224 131.094 263.192 133.67 263.192ZM133.702 261.512C132.198 261.512 131.126 260.264 131.126 258.792C131.126 257.288 132.118 256.072 133.67 256.072C135.19 256.072 136.262 257.304 136.262 258.792C136.262 260.28 135.27 261.512 133.702 261.512ZM140.169 263H144.553C146.473 263 147.673 262.136 147.673 260.712C147.673 259.512 146.953 258.888 145.929 258.6C146.649 258.28 147.289 257.736 147.289 256.664C147.289 255.368 146.185 254.552 144.505 254.552H140.169V263ZM142.073 261.464V259.352H144.169C145.209 259.352 145.705 259.768 145.705 260.376C145.705 261.032 145.209 261.464 144.265 261.464H142.073ZM142.073 258.04V256.04H144.089C144.953 256.04 145.321 256.456 145.321 257C145.321 257.608 144.873 258.04 144.057 258.04H142.073ZM156.695 263V257.992C156.695 255.736 155.479 254.424 152.983 254.424C151.607 254.424 150.695 254.712 149.767 255.128L150.295 256.68C151.063 256.36 151.767 256.152 152.711 256.152C154.055 256.152 154.791 256.792 154.791 257.96V258.12C154.135 257.912 153.479 257.768 152.455 257.768C150.487 257.768 149.031 258.664 149.031 260.536C149.031 262.264 150.439 263.176 152.039 263.176C153.319 263.176 154.199 262.648 154.775 261.96V263H156.695ZM154.823 259.944C154.823 261 153.863 261.72 152.583 261.72C151.671 261.72 150.951 261.272 150.951 260.472C150.951 259.624 151.671 259.128 152.887 259.128C153.639 259.128 154.327 259.272 154.823 259.464V259.944ZM158.997 263H160.933V259.592H164.661V263H166.597V254.552H164.661V257.976H160.933V254.552H158.997V263ZM169.029 263H170.853L174.869 257.368V263H176.741V254.552H174.917C173.573 256.44 172.245 258.328 170.917 260.216V254.552H169.029V263ZM178.401 263H180.673L182.673 260.152H184.401V263H186.337V254.552H182.097C179.969 254.552 178.769 255.672 178.769 257.304C178.769 258.632 179.585 259.48 180.737 259.832L178.401 263ZM182.369 258.696C181.377 258.696 180.705 258.216 180.705 257.4C180.705 256.6 181.329 256.12 182.353 256.12H184.401V258.696H182.369Z" fill="black"/>
</svg>
