<svg width="70" height="58" viewBox="0 0 70 58" fill="none" xmlns="http://www.w3.org/2000/svg">
<path d="M27.7967 22.8711C31.845 22.8711 35.1275 26.1528 35.1277 30.2012C35.1277 34.1231 32.0477 37.326 28.1746 37.5225L27.7967 37.5322C23.7511 37.526 20.4728 34.2477 20.4666 30.2021V30.2012C20.4668 26.153 23.7485 22.8713 27.7967 22.8711ZM27.7976 25.9727C25.4639 25.9781 23.5733 27.8693 23.5681 30.2031C23.569 32.5378 25.4619 34.4304 27.7967 34.4307C30.1322 34.4307 32.0262 32.5367 32.0262 30.2012C32.0259 27.866 30.1328 25.973 27.7976 25.9727Z" fill="#FEAD04"/>
<path d="M27.7967 22.8711C31.845 22.8711 35.1275 26.1528 35.1277 30.2012C35.1277 34.1231 32.0477 37.326 28.1746 37.5225L27.7967 37.5322C23.7511 37.526 20.4728 34.2477 20.4666 30.2021V30.2012C20.4668 26.153 23.7485 22.8713 27.7967 22.8711ZM27.7976 25.9727C25.4639 25.9781 23.5733 27.8693 23.5681 30.2031C23.569 32.5378 25.4619 34.4304 27.7967 34.4307C30.1322 34.4307 32.0262 32.5367 32.0262 30.2012C32.0259 27.866 30.1328 25.973 27.7976 25.9727Z" stroke="#FEAD04"/>
<path d="M27.7967 22.8711C31.845 22.8711 35.1275 26.1528 35.1277 30.2012C35.1277 34.1231 32.0477 37.326 28.1746 37.5225L27.7967 37.5322C23.7511 37.526 20.4728 34.2477 20.4666 30.2021V30.2012C20.4668 26.153 23.7485 22.8713 27.7967 22.8711ZM27.7976 25.9727C25.4639 25.9781 23.5733 27.8693 23.5681 30.2031C23.569 32.5378 25.4619 34.4304 27.7967 34.4307C30.1322 34.4307 32.0262 32.5367 32.0262 30.2012C32.0259 27.866 30.1328 25.973 27.7976 25.9727Z" stroke="white"/>
<path d="M28.3223 2.95703C29.1788 2.95703 29.873 3.65228 29.873 4.50879C29.8728 5.36508 29.1786 6.05957 28.3223 6.05957H24.8252C24.5569 6.05533 24.324 6.24437 24.2744 6.50781L24.2754 6.50879L23.5049 10.793C26.6084 10.1151 29.8316 10.1735 32.9141 10.9707C33.4508 11.1093 33.8729 11.5235 34.0215 12.0576C34.1702 12.592 34.0223 13.1656 33.6338 13.5615C33.2454 13.9571 32.6755 14.1158 32.1387 13.9775L32.1338 13.9766C23.8619 11.7697 15.2506 16.1205 12.1201 24.0889C8.98978 32.0572 12.3373 41.1065 19.8994 45.1201C27.4615 49.1334 36.8318 46.8337 41.6768 39.7754C42.157 39.0677 43.1197 38.8817 43.8291 39.3604C44.5395 39.8398 44.7264 40.8041 44.2471 41.5146L44.2461 41.5166C42.7574 43.7004 40.8449 45.5587 38.627 46.9863L42.2021 49.4707L42.2871 49.5186C42.4924 49.6102 42.7378 49.568 42.9014 49.4043L46.3369 45.9688C46.9612 45.3787 47.946 45.4062 48.5361 46.0303C49.1232 46.6514 49.0984 47.6286 48.4834 48.2197L45.1006 51.5938C43.8537 52.8436 41.891 53.0222 40.4385 52.0186H40.4375L35.5322 48.6172L34.4678 54.4912V54.4922C34.1469 56.2468 32.606 57.5116 30.8232 57.4863V57.4873H24.876V57.4863C23.0932 57.5116 21.5523 56.2468 21.2314 54.4922V54.4912L20.166 48.6172L15.2617 52.0186L15.2607 52.0176C13.9012 52.9614 12.0916 52.8681 10.8408 51.8252L10.5986 51.6035L6.39453 47.4004V47.3994C5.14485 46.1524 4.96603 44.1898 5.96973 42.7373L5.97266 42.7334L9.36719 37.9355L3.49609 36.8721H3.49512C1.7407 36.551 0.475617 35.0102 0.500977 33.2275L0.5 27.2803H0.500977C0.47577 25.4977 1.74077 23.9567 3.49512 23.6357H3.49609L9.38086 22.5703L5.98047 17.666C4.97355 16.2159 5.14776 14.2529 6.39453 13.0029L10.5977 8.7998C11.7665 7.62738 13.565 7.39653 14.9824 8.19922L15.2607 8.37402L15.2666 8.37793L20.1143 11.8223L21.1787 5.95312V5.95215C21.4997 4.1978 23.0407 2.93377 24.8232 2.95898V2.95703H28.3223ZM32.0869 49.6758C29.257 50.3021 26.325 50.3024 23.4951 49.6758L24.2646 53.9463C24.3137 54.2105 24.5466 54.4009 24.8154 54.3965H30.7686L30.8672 54.3896C31.0931 54.3526 31.2769 54.1764 31.3193 53.9443L32.0869 49.6758ZM8.54688 44.5254C8.40048 44.7438 8.42894 45.0356 8.61523 45.2217L12.8184 49.4248H12.8174C13.0057 49.6084 13.2979 49.6326 13.5146 49.4834L17.084 47.0107C14.6484 45.4531 12.5797 43.3863 11.0215 40.9512L8.54688 44.5254ZM13.4727 10.9297C13.2543 10.7838 12.9633 10.813 12.7773 10.999H12.7764L8.56348 15.2119C8.36673 15.3977 8.33401 15.6992 8.48633 15.9229H8.48535L10.958 19.4932C12.5208 17.0448 14.5985 14.967 17.0469 13.4043L13.4727 10.9307V10.9297ZM3.60254 33.1738L3.61133 33.2705C3.65162 33.4918 3.82436 33.6704 4.05176 33.7129L8.32324 34.4814C7.70212 31.6547 7.7021 28.7271 8.32324 25.9004L4.05273 26.668L4.05371 26.6689C3.78875 26.7174 3.59815 26.9504 3.60254 27.2197V33.1738Z" fill="#FEAD04"/>
<path d="M28.3223 2.95703C29.1788 2.95703 29.873 3.65228 29.873 4.50879C29.8728 5.36508 29.1786 6.05957 28.3223 6.05957H24.8252C24.5569 6.05533 24.324 6.24437 24.2744 6.50781L24.2754 6.50879L23.5049 10.793C26.6084 10.1151 29.8316 10.1735 32.9141 10.9707C33.4508 11.1093 33.8729 11.5235 34.0215 12.0576C34.1702 12.592 34.0223 13.1656 33.6338 13.5615C33.2454 13.9571 32.6755 14.1158 32.1387 13.9775L32.1338 13.9766C23.8619 11.7697 15.2506 16.1205 12.1201 24.0889C8.98978 32.0572 12.3373 41.1065 19.8994 45.1201C27.4615 49.1334 36.8318 46.8337 41.6768 39.7754C42.157 39.0677 43.1197 38.8817 43.8291 39.3604C44.5395 39.8398 44.7264 40.8041 44.2471 41.5146L44.2461 41.5166C42.7574 43.7004 40.8449 45.5587 38.627 46.9863L42.2021 49.4707L42.2871 49.5186C42.4924 49.6102 42.7378 49.568 42.9014 49.4043L46.3369 45.9688C46.9612 45.3787 47.946 45.4062 48.5361 46.0303C49.1232 46.6514 49.0984 47.6286 48.4834 48.2197L45.1006 51.5938C43.8537 52.8436 41.891 53.0222 40.4385 52.0186H40.4375L35.5322 48.6172L34.4678 54.4912V54.4922C34.1469 56.2468 32.606 57.5116 30.8232 57.4863V57.4873H24.876V57.4863C23.0932 57.5116 21.5523 56.2468 21.2314 54.4922V54.4912L20.166 48.6172L15.2617 52.0186L15.2607 52.0176C13.9012 52.9614 12.0916 52.8681 10.8408 51.8252L10.5986 51.6035L6.39453 47.4004V47.3994C5.14485 46.1524 4.96603 44.1898 5.96973 42.7373L5.97266 42.7334L9.36719 37.9355L3.49609 36.8721H3.49512C1.7407 36.551 0.475617 35.0102 0.500977 33.2275L0.5 27.2803H0.500977C0.47577 25.4977 1.74077 23.9567 3.49512 23.6357H3.49609L9.38086 22.5703L5.98047 17.666C4.97355 16.2159 5.14776 14.2529 6.39453 13.0029L10.5977 8.7998C11.7665 7.62738 13.565 7.39653 14.9824 8.19922L15.2607 8.37402L15.2666 8.37793L20.1143 11.8223L21.1787 5.95312V5.95215C21.4997 4.1978 23.0407 2.93377 24.8232 2.95898V2.95703H28.3223ZM32.0869 49.6758C29.257 50.3021 26.325 50.3024 23.4951 49.6758L24.2646 53.9463C24.3137 54.2105 24.5466 54.4009 24.8154 54.3965H30.7686L30.8672 54.3896C31.0931 54.3526 31.2769 54.1764 31.3193 53.9443L32.0869 49.6758ZM8.54688 44.5254C8.40048 44.7438 8.42894 45.0356 8.61523 45.2217L12.8184 49.4248H12.8174C13.0057 49.6084 13.2979 49.6326 13.5146 49.4834L17.084 47.0107C14.6484 45.4531 12.5797 43.3863 11.0215 40.9512L8.54688 44.5254ZM13.4727 10.9297C13.2543 10.7838 12.9633 10.813 12.7773 10.999H12.7764L8.56348 15.2119C8.36673 15.3977 8.33401 15.6992 8.48633 15.9229H8.48535L10.958 19.4932C12.5208 17.0448 14.5985 14.967 17.0469 13.4043L13.4727 10.9307V10.9297ZM3.60254 33.1738L3.61133 33.2705C3.65162 33.4918 3.82436 33.6704 4.05176 33.7129L8.32324 34.4814C7.70212 31.6547 7.7021 28.7271 8.32324 25.9004L4.05273 26.668L4.05371 26.6689C3.78875 26.7174 3.59815 26.9504 3.60254 27.2197V33.1738Z" stroke="#FEAD04"/>
<path d="M28.3223 2.95703C29.1788 2.95703 29.873 3.65228 29.873 4.50879C29.8728 5.36508 29.1786 6.05957 28.3223 6.05957H24.8252C24.5569 6.05533 24.324 6.24437 24.2744 6.50781L24.2754 6.50879L23.5049 10.793C26.6084 10.1151 29.8316 10.1735 32.9141 10.9707C33.4508 11.1093 33.8729 11.5235 34.0215 12.0576C34.1702 12.592 34.0223 13.1656 33.6338 13.5615C33.2454 13.9571 32.6755 14.1158 32.1387 13.9775L32.1338 13.9766C23.8619 11.7697 15.2506 16.1205 12.1201 24.0889C8.98978 32.0572 12.3373 41.1065 19.8994 45.1201C27.4615 49.1334 36.8318 46.8337 41.6768 39.7754C42.157 39.0677 43.1197 38.8817 43.8291 39.3604C44.5395 39.8398 44.7264 40.8041 44.2471 41.5146L44.2461 41.5166C42.7574 43.7004 40.8449 45.5587 38.627 46.9863L42.2021 49.4707L42.2871 49.5186C42.4924 49.6102 42.7378 49.568 42.9014 49.4043L46.3369 45.9688C46.9612 45.3787 47.946 45.4062 48.5361 46.0303C49.1232 46.6514 49.0984 47.6286 48.4834 48.2197L45.1006 51.5938C43.8537 52.8436 41.891 53.0222 40.4385 52.0186H40.4375L35.5322 48.6172L34.4678 54.4912V54.4922C34.1469 56.2468 32.606 57.5116 30.8232 57.4863V57.4873H24.876V57.4863C23.0932 57.5116 21.5523 56.2468 21.2314 54.4922V54.4912L20.166 48.6172L15.2617 52.0186L15.2607 52.0176C13.9012 52.9614 12.0916 52.8681 10.8408 51.8252L10.5986 51.6035L6.39453 47.4004V47.3994C5.14485 46.1524 4.96603 44.1898 5.96973 42.7373L5.97266 42.7334L9.36719 37.9355L3.49609 36.8721H3.49512C1.7407 36.551 0.475617 35.0102 0.500977 33.2275L0.5 27.2803H0.500977C0.47577 25.4977 1.74077 23.9567 3.49512 23.6357H3.49609L9.38086 22.5703L5.98047 17.666C4.97355 16.2159 5.14776 14.2529 6.39453 13.0029L10.5977 8.7998C11.7665 7.62738 13.565 7.39653 14.9824 8.19922L15.2607 8.37402L15.2666 8.37793L20.1143 11.8223L21.1787 5.95312V5.95215C21.4997 4.1978 23.0407 2.93377 24.8232 2.95898V2.95703H28.3223ZM32.0869 49.6758C29.257 50.3021 26.325 50.3024 23.4951 49.6758L24.2646 53.9463C24.3137 54.2105 24.5466 54.4009 24.8154 54.3965H30.7686L30.8672 54.3896C31.0931 54.3526 31.2769 54.1764 31.3193 53.9443L32.0869 49.6758ZM8.54688 44.5254C8.40048 44.7438 8.42894 45.0356 8.61523 45.2217L12.8184 49.4248H12.8174C13.0057 49.6084 13.2979 49.6326 13.5146 49.4834L17.084 47.0107C14.6484 45.4531 12.5797 43.3863 11.0215 40.9512L8.54688 44.5254ZM13.4727 10.9297C13.2543 10.7838 12.9633 10.813 12.7773 10.999H12.7764L8.56348 15.2119C8.36673 15.3977 8.33401 15.6992 8.48633 15.9229H8.48535L10.958 19.4932C12.5208 17.0448 14.5985 14.967 17.0469 13.4043L13.4727 10.9307V10.9297ZM3.60254 33.1738L3.61133 33.2705C3.65162 33.4918 3.82436 33.6704 4.05176 33.7129L8.32324 34.4814C7.70212 31.6547 7.7021 28.7271 8.32324 25.9004L4.05273 26.668L4.05371 26.6689C3.78875 26.7174 3.59815 26.9504 3.60254 27.2197V33.1738Z" stroke="white"/>
<path d="M20.2688 17.7871C20.9835 17.4281 21.845 17.6726 22.2688 18.3311L22.3469 18.4688L22.3488 18.4707C22.7318 19.2331 22.4265 20.1617 21.6662 20.5488L21.6633 20.5508C18.1734 22.2957 16.2122 25.8661 16.2121 30.7275C16.2121 31.584 15.5179 32.2783 14.6613 32.2783C13.8049 32.2783 13.1106 31.584 13.1106 30.7275C13.1106 24.7367 15.6323 20.1061 20.2688 17.7871Z" fill="#FEAD04"/>
<path d="M20.2688 17.7871C20.9835 17.4281 21.845 17.6726 22.2688 18.3311L22.3469 18.4688L22.3488 18.4707C22.7318 19.2331 22.4265 20.1617 21.6662 20.5488L21.6633 20.5508C18.1734 22.2957 16.2122 25.8661 16.2121 30.7275C16.2121 31.584 15.5179 32.2783 14.6613 32.2783C13.8049 32.2783 13.1106 31.584 13.1106 30.7275C13.1106 24.7367 15.6323 20.1061 20.2688 17.7871Z" stroke="#FEAD04"/>
<path d="M20.2688 17.7871C20.9835 17.4281 21.845 17.6726 22.2688 18.3311L22.3469 18.4688L22.3488 18.4707C22.7318 19.2331 22.4265 20.1617 21.6662 20.5488L21.6633 20.5508C18.1734 22.2957 16.2122 25.8661 16.2121 30.7275C16.2121 31.584 15.5179 32.2783 14.6613 32.2783C13.8049 32.2783 13.1106 31.584 13.1106 30.7275C13.1106 24.7367 15.6323 20.1061 20.2688 17.7871Z" stroke="white"/>
<path d="M24.119 15.5156C24.9755 15.5156 25.6698 16.2099 25.6698 17.0664C25.6698 17.9229 24.9756 18.6172 24.119 18.6172C23.2626 18.6172 22.5683 17.9229 22.5683 17.0664C22.5683 16.2099 23.2626 15.5157 24.119 15.5156Z" fill="#FEAD04"/>
<path d="M24.119 15.5156C24.9755 15.5156 25.6698 16.2099 25.6698 17.0664C25.6698 17.9229 24.9756 18.6172 24.119 18.6172C23.2626 18.6172 22.5683 17.9229 22.5683 17.0664C22.5683 16.2099 23.2626 15.5157 24.119 15.5156Z" stroke="#FEAD04"/>
<path d="M24.119 15.5156C24.9755 15.5156 25.6698 16.2099 25.6698 17.0664C25.6698 17.9229 24.9756 18.6172 24.119 18.6172C23.2626 18.6172 22.5683 17.9229 22.5683 17.0664C22.5683 16.2099 23.2626 15.5157 24.119 15.5156Z" stroke="white"/>
<path d="M59.9426 8.45901C59.8618 8.16694 59.5982 7.96273 59.2932 7.95579C58.5942 7.93989 57.9046 8.05149 57.256 8.27498C57.3284 8.01958 57.3836 7.75837 57.4198 7.49274C57.6659 5.6867 57.028 3.85309 55.7131 2.58794C55.4945 2.37752 55.1622 2.33466 54.8951 2.48209C53.2869 3.3692 52.18 4.97704 51.9339 6.78318C51.8862 7.13322 51.8721 7.48425 51.8893 7.832C51.1428 7.38587 50.2948 7.10512 49.4066 7.02881C49.1029 7.00275 48.8164 7.17699 48.7008 7.45857C48.0065 9.15074 48.1596 11.0875 49.1103 12.6391C49.1116 12.6413 49.113 12.6434 49.1144 12.6455C48.8923 12.6376 48.6687 12.6423 48.4448 12.6604C48.1406 12.6851 47.887 12.9043 47.8203 13.2006C47.7261 13.6183 47.6811 14.0416 47.682 14.4624C47.635 14.4635 47.5878 14.4688 47.5406 14.4798C47.3609 14.5214 47.1842 14.5718 47.0107 14.6298C47.4405 13.1389 47.2532 11.5155 46.4694 10.1596C46.3177 9.89713 46.0109 9.76503 45.7133 9.83395C44.5886 10.0945 43.5755 10.6836 42.7951 11.5005C42.7318 11.2178 42.6469 10.9386 42.5396 10.6658C41.8736 8.9727 40.4189 7.68227 38.6482 7.21388C38.3537 7.13601 38.0416 7.25879 37.8791 7.5164C36.902 9.06553 36.7162 11.0013 37.3822 12.6944C37.4895 12.9672 37.6175 13.2293 37.7639 13.4795C36.6361 13.4132 35.4931 13.6721 34.4923 14.2476C34.2274 14.3998 34.0929 14.7056 34.1606 15.0011C34.5106 16.5277 35.4794 17.8436 36.8097 18.6422C36.6432 18.718 36.4795 18.8015 36.3196 18.8934C36.0548 19.0456 35.9203 19.3514 35.988 19.6469C36.338 21.1735 37.3068 22.4895 38.6371 23.2881C38.4706 23.3639 38.3068 23.4473 38.147 23.5393C37.8821 23.6915 37.7476 23.9973 37.8153 24.2927C38.1653 25.8194 39.1341 27.1353 40.4644 27.9339C40.2979 28.0096 40.1342 28.0931 39.9743 28.1851C39.7095 28.3373 39.575 28.6431 39.6426 28.9385C39.7763 29.5217 39.9991 30.0781 40.3048 30.5923C40.4994 30.9195 40.9249 31.0263 41.2549 30.8312C41.5851 30.6361 41.695 30.2126 41.5004 29.8854C41.3587 29.6471 41.2404 29.3969 41.1465 29.1374C42.2634 28.6601 43.5089 28.657 44.6387 29.1435C45.7686 29.6301 46.6154 30.5343 47.0224 31.6678C46.7599 31.7797 46.4866 31.8659 46.2063 31.9258C45.8309 32.0062 45.5909 32.3731 45.6695 32.7454C45.7482 33.1179 46.116 33.3548 46.4911 33.2746C46.8067 33.2071 47.1152 33.114 47.4142 32.9964C47.4675 32.9754 47.5202 32.9531 47.5729 32.9306L50.227 39.6782C50.3663 40.0324 50.7687 40.2057 51.1257 40.0652C51.4827 39.9248 51.6591 39.5239 51.5198 39.1697L48.8654 32.4213C48.9159 32.403 48.9664 32.3847 49.0164 32.365C50.3447 31.8425 51.4512 30.8446 52.0983 29.5693C53.0131 29.656 53.9491 29.5234 54.8088 29.1852C54.8192 29.1811 54.8293 29.1764 54.8395 29.1723C55.4695 31.7951 56.2831 34.3821 57.2757 36.9056C57.415 37.2598 57.8174 37.433 58.1743 37.2926C58.5312 37.1522 58.7078 36.7513 58.5685 36.3971C57.5846 33.8956 56.7847 31.3582 56.1692 28.792C57.3008 29.0426 58.4961 28.9542 59.5861 28.5254C59.7412 28.4644 59.8943 28.3965 60.0446 28.3218C61.6865 27.5051 62.8604 25.9447 63.1847 24.1476C63.2387 23.8488 63.09 23.551 62.8186 23.4139C62.0007 23.0012 61.1019 22.7942 60.2021 22.793C61.0628 21.6151 61.4603 20.1382 61.2809 18.6762C61.244 18.3753 61.0135 18.1348 60.7131 18.0835C60.3741 18.0257 60.0327 17.9988 59.6931 18.0015C60.5302 16.7448 60.8543 15.192 60.5639 13.6974C60.5061 13.3999 60.2594 13.1759 59.956 13.1454C59.7126 13.121 59.4692 13.1127 59.227 13.119C60.1112 11.745 60.3804 10.0408 59.9426 8.45901ZM45.1953 27.0227C44.0791 27.501 42.8324 27.5037 41.7023 27.017C40.5722 26.5303 39.7252 25.6258 39.3183 24.4919C40.4347 24.0134 41.6813 24.011 42.8113 24.4976C43.9414 24.9843 44.7884 25.8888 45.1953 27.0227ZM43.3679 22.3769C42.2517 22.8552 41.005 22.8578 39.8749 22.3711C38.7448 21.8844 37.8978 20.98 37.491 19.846C38.6074 19.3676 39.8539 19.3651 40.9839 19.8517C42.114 20.3385 42.9611 21.2429 43.3679 22.3769ZM41.5405 17.7311C40.4244 18.2095 39.1776 18.212 38.0476 17.7253C36.9175 17.2386 36.0705 16.3342 35.6636 15.2002C36.78 14.7219 38.0265 14.7193 39.1565 15.206C40.2867 15.6927 41.1337 16.5971 41.5405 17.7311ZM41.1272 14.6455C40.0022 14.2005 39.1235 13.3264 38.6749 12.1859C38.2263 11.0454 38.274 9.80694 38.7944 8.71473C39.9195 9.15962 40.7982 10.0338 41.2468 11.1743C41.6954 12.3148 41.6476 13.5533 41.1272 14.6455ZM50.9618 28.7394C50.4661 29.8656 49.5521 30.7124 48.4089 31.1233C47.9342 30.0161 47.938 28.777 48.4337 27.6507C48.9295 26.5245 49.8434 25.6773 50.9867 25.2668C51.4615 26.3741 51.4576 27.6132 50.9618 28.7394ZM49.1345 24.0936C48.6388 25.2199 47.7249 26.0671 46.5815 26.4775C46.1068 25.3702 46.1107 24.1311 46.6063 23.0049C47.1021 21.8787 48.017 21.0313 49.1594 20.6211C49.6341 21.7282 49.6303 22.9674 49.1345 24.0936ZM47.3071 19.4478C46.8114 20.574 45.8974 21.421 44.7541 21.8317C44.2794 20.7245 44.2833 19.4853 44.779 18.3591C45.2747 17.2329 46.1887 16.3859 47.332 15.9752C47.8068 17.0825 47.8029 18.3216 47.3071 19.4478ZM45.4797 14.802C44.984 15.9282 44.0703 16.7757 42.9267 17.1859C42.452 16.0786 42.4559 14.8394 42.9516 13.7133C43.4473 12.5871 44.3612 11.7397 45.5046 11.3294C45.9794 12.4367 45.9755 13.6758 45.4797 14.802ZM53.309 6.96104C53.4748 5.74444 54.121 4.68131 55.1079 3.97466C55.8714 4.90772 56.2104 6.0983 56.0447 7.3149C55.8788 8.53153 55.2326 9.59466 54.2457 10.3013C53.4823 9.36814 53.1433 8.17762 53.309 6.96104ZM49.8114 8.48056C50.998 8.72528 52.0161 9.43461 52.6564 10.4799C53.2968 11.5252 53.4649 12.752 53.1416 13.9162C51.955 13.6714 50.9369 12.9621 50.2966 11.9169C49.6562 10.8715 49.488 9.64471 49.8114 8.48056ZM54.1686 27.9538C53.6598 28.1354 53.1197 28.2238 52.5823 28.215C52.7667 27.3802 52.7628 26.5145 52.5739 25.6854C53.342 26.2475 53.8985 27.036 54.1686 27.9538ZM53.7126 23.8244C52.6774 23.8568 51.6733 23.5289 50.8611 22.8918C50.9779 21.7083 50.7302 20.4998 50.124 19.4512C50.1111 19.4288 50.0966 19.4078 50.0816 19.3874C50.9601 19.5378 51.7753 19.9536 52.4281 20.6025C53.2984 21.4674 53.752 22.6189 53.7126 23.8244ZM50.1334 17.2942C49.3346 16.38 48.9663 15.2118 49.0878 14.0239C50.2872 14.0694 51.3987 14.5946 52.1975 15.5088C52.9964 16.4229 53.3646 17.5912 53.2431 18.7791C52.0437 18.7335 50.9322 18.2082 50.1334 17.2942ZM61.6929 24.4318C61.3392 25.5873 60.5353 26.5386 59.4292 27.0887C58.3243 27.6388 57.0783 27.7066 55.9411 27.2925C56.2948 26.1369 57.0988 25.1857 58.2049 24.6355C59.3107 24.0854 60.5558 24.0177 61.6929 24.4318ZM58.5574 22.5819C57.6616 23.4305 56.4899 23.8597 55.2789 23.7976C55.275 22.5917 55.7627 21.4487 56.6586 20.6L56.6586 20.6C57.5543 19.7513 58.726 19.3221 59.9371 19.3843C59.941 20.5901 59.4532 21.7331 58.5574 22.5819ZM58.1178 17.7796C57.2828 18.6876 56.1435 19.1961 54.9305 19.2176C54.8428 18.0152 55.25 16.8418 56.0849 15.9339C56.9197 15.0259 58.0591 14.5173 59.2721 14.4959C59.3599 15.6982 58.9527 16.8716 58.1178 17.7796ZM57.8208 12.7156C57.0589 13.6848 55.962 14.2795 54.7537 14.3941C54.5725 13.2026 54.8872 12.0019 55.6491 11.0328C56.4112 10.0637 57.5081 9.46896 58.7162 9.35429C58.8975 10.5457 58.5828 11.7464 57.8208 12.7156Z" fill="#FEAD04"/>
</svg>
