<svg width="29" height="29" viewBox="0 0 29 29" fill="none" xmlns="http://www.w3.org/2000/svg">
<rect width="29" height="29" fill="#FEAD04"/>
<path d="M20.2852 10.7192C20.134 10.1569 19.6906 9.71368 19.1284 9.56227C18.1014 9.28125 13.993 9.28125 13.993 9.28125C13.993 9.28125 9.88479 9.28125 8.85772 9.55162C8.30633 9.70286 7.8522 10.157 7.70095 10.7192C7.43066 11.7462 7.43066 13.876 7.43066 13.876C7.43066 13.876 7.43066 16.0166 7.70095 17.0329C7.85236 17.5951 8.29552 18.0383 8.8578 18.1897C9.89561 18.4708 13.9932 18.4708 13.9932 18.4708C13.9932 18.4708 18.1014 18.4708 19.1284 18.2005C19.6907 18.0491 20.134 17.6059 20.2854 17.0437C20.5556 16.0166 20.5556 13.8869 20.5556 13.8869C20.5556 13.8869 20.5664 11.7462 20.2852 10.7192ZM12.685 15.8437V11.9084L16.1013 13.876L12.685 15.8437Z" fill="white"/>
</svg>
